<svg xmlns="http://www.w3.org/2000/svg" xmlns:v="https://svgstorm.com"
viewBox = "0 0 160 160"
width="160"
height="160">
<g fill="None" fill-opacity="0.0" stroke="#593A84" stroke-opacity="1.00" stroke-width="0.3"><path d="
M 0.00 160.00 
L 160.00 160.00
L 160.00 0.00
L 0.00 0.00
L 0.00 160.00
M 71.00 15.00 
C 66.37 13.18 68.94 16.80 70.00 19.00
C 66.15 16.86 67.31 20.23 70.00 21.00
C 66.10 21.15 62.94 22.42 62.00 18.00
C 61.38 22.11 62.37 24.12 64.00 26.00
C 58.08 27.61 60.45 20.40 60.00 17.00
C 64.03 17.24 67.29 18.61 66.00 13.00
C 68.05 11.94 70.18 12.57 71.00 15.00
M 103.00 18.00 
C 105.30 18.80 103.75 22.26 106.00 17.00
C 108.67 19.34 103.09 26.37 109.00 24.00
C 108.34 26.47 105.62 26.21 104.00 25.00
C 103.45 24.83 100.92 24.97 102.00 22.00
C 96.18 20.08 92.98 23.50 86.92 21.93 C 80.87 20.36 88.15 15.03 93.00 17.00
C 91.76 13.22 94.98 12.46 98.00 13.00
C 92.17 16.33 98.19 17.64 103.00 18.00
M 56.00 17.00 
C 57.81 18.81 54.43 23.84 51.78 21.22 C 49.12 18.60 54.22 15.22 56.00 17.00
M 79.00 20.00 
C 79.38 19.79 80.06 18.72 81.00 17.00
C 82.41 18.51 82.00 20.45 81.00 22.00
C 81.53 23.65 84.41 23.74 84.00 26.00
C 82.72 25.72 80.50 26.76 80.00 25.00
C 77.48 24.28 78.88 25.79 78.00 22.00
C 75.22 21.89 73.31 21.76 71.00 21.00
C 75.33 18.94 71.75 20.18 71.00 17.00
C 73.49 18.46 78.93 14.97 79.00 20.00
M 59.00 18.00 
C 59.81 18.81 58.69 21.77 57.29 20.63 C 55.90 19.50 58.10 17.10 59.00 18.00
M 69.00 30.00 
C 71.29 31.47 70.77 32.59 70.00 35.00
C 71.49 33.33 73.57 32.54 75.00 31.00
C 75.24 30.74 75.98 29.97 76.00 30.00
C 77.59 28.82 79.02 29.60 79.00 32.00
C 78.06 31.43 77.18 30.85 76.00 31.00
C 76.33 33.68 78.63 35.20 81.00 34.00
C 81.18 33.32 83.35 31.47 84.00 31.00
C 87.24 28.65 85.70 31.16 88.00 31.00
C 89.84 30.87 94.12 26.52 94.00 32.00
C 92.72 32.53 92.14 31.03 91.00 31.00
C 91.02 31.00 90.75 32.75 91.00 33.00
C 92.37 34.35 96.18 33.83 98.00 34.00
C 99.83 33.96 101.96 31.73 104.00 34.00
C 105.78 35.84 104.47 36.91 104.00 39.00
C 104.15 39.58 105.60 40.51 106.00 41.00
C 105.40 38.08 106.27 35.38 107.00 35.00
C 107.48 33.88 109.58 33.79 110.00 35.00
C 110.18 35.50 110.16 37.49 110.00 38.00
C 109.78 38.71 107.25 38.49 107.00 38.00
C 107.00 38.44 107.28 41.83 107.00 42.00
C 106.80 43.66 103.54 43.19 103.00 42.00
C 102.63 41.19 102.93 38.90 103.00 38.00
C 102.70 38.24 101.46 38.13 101.00 38.00
C 99.55 37.58 100.33 36.05 100.00 35.00
C 99.61 35.21 99.00 35.00 99.00 35.00
C 99.05 36.00 98.96 37.00 99.00 38.00
C 94.94 36.99 91.04 40.36 88.00 37.00
C 87.96 39.04 86.06 40.73 89.00 42.00
C 81.29 45.13 89.09 35.22 85.00 34.00
C 85.00 35.00 85.00 36.00 85.00 37.00
C 82.63 38.75 83.62 38.56 81.00 38.00
C 78.03 37.36 78.70 36.30 76.00 35.00
C 76.86 37.48 73.91 39.58 72.00 38.00
C 71.47 37.74 70.64 36.89 70.00 37.00
C 69.26 37.21 64.58 39.52 65.08 35.92 C 65.59 32.32 64.21 31.80 67.00 30.00
C 68.42 29.09 67.65 29.13 69.00 30.00
M 60.00 34.00 
C 60.08 33.82 61.00 34.00 61.00 34.00
C 62.93 32.73 63.42 33.26 63.97 36.03 C 64.53 38.79 61.57 37.63 61.00 38.00
C 60.82 38.59 59.37 40.02 59.00 41.00
C 59.99 40.88 61.01 41.09 62.00 41.00
C 61.70 42.72 58.73 44.01 58.00 42.00
C 57.38 40.75 55.65 36.50 56.00 35.00
C 54.62 35.30 55.21 37.02 55.00 38.00
C 52.83 36.85 45.53 40.56 48.00 37.00
C 49.26 36.72 45.87 33.73 46.10 36.12 C 46.32 38.51 44.58 38.69 43.00 39.00
C 43.58 34.92 45.44 32.96 50.00 34.00
C 52.28 33.67 57.19 33.94 58.00 30.00
C 59.83 30.49 60.18 32.35 60.00 34.00
M 121.00 38.00 
C 119.79 35.53 119.58 32.13 117.00 30.00
C 120.61 30.15 122.75 35.24 121.00 38.00
M 43.00 34.00 
C 41.65 45.03 33.34 30.91 43.00 34.00
M 115.00 37.00 
C 111.42 37.58 113.58 41.63 115.00 43.00
C 109.08 44.61 111.45 37.40 111.00 34.00
C 112.89 35.80 115.85 32.84 115.00 37.00
M 118.00 34.00 
C 119.56 40.97 112.73 35.19 118.00 34.00
M 108.00 58.00 
C 109.40 60.28 111.39 60.22 114.00 60.00
C 115.24 60.56 116.25 61.49 116.00 63.00
C 114.67 63.00 113.33 63.00 112.00 63.00
C 111.88 63.03 112.00 64.50 112.00 65.00
C 112.00 65.50 112.22 66.63 112.00 67.00
C 111.09 68.50 108.96 69.38 110.00 72.00
C 104.92 70.47 107.90 74.77 105.00 76.00
C 104.28 76.66 101.86 75.49 101.00 76.00
C 100.72 77.28 101.76 79.50 100.00 80.00
C 98.35 81.61 98.81 82.62 96.00 81.00
C 94.72 80.27 94.69 78.50 93.00 78.00
C 98.92 81.61 84.52 92.28 85.00 83.00
C 82.52 83.92 75.62 83.52 73.00 83.00
C 72.82 82.96 69.96 81.96 70.00 82.00
C 69.15 82.17 59.12 91.23 61.00 82.00
C 52.09 85.18 59.04 75.87 61.00 73.00
C 61.26 72.28 61.71 71.70 62.00 71.00
C 61.56 62.84 71.42 54.73 81.00 57.00
C 80.51 55.07 81.74 52.63 84.00 53.00
C 90.60 52.40 97.40 53.65 104.00 53.00 C 110.60 52.35 106.81 56.07 108.00 58.00
M 71.00 94.00 
C 71.50 94.00 72.00 94.00 72.00 94.00
C 75.02 92.93 78.64 92.70 82.00 93.00
C 87.49 94.58 77.02 109.22 78.00 113.00
C 87.00 114.41 89.76 100.66 89.00 94.00
C 91.75 92.65 96.68 92.15 99.00 94.00
C 101.23 94.35 101.56 94.41 104.00 94.00
C 107.94 93.34 114.50 92.35 119.00 93.00 C 123.50 93.65 132.14 92.05 136.00 93.00 C 139.86 93.95 150.69 90.66 152.00 94.00
C 152.86 94.82 151.33 95.72 151.00 96.00
C 148.98 97.75 145.71 96.74 143.00 97.00
C 143.09 100.08 140.58 102.77 139.00 105.00
C 138.92 105.49 139.00 106.00 139.00 106.00
C 137.91 110.66 138.45 116.41 132.92 118.92 C 127.39 121.42 123.18 115.14 127.77 110.77 C 132.36 106.40 128.78 101.31 133.00 97.00
C 128.41 95.27 121.34 99.31 117.00 97.00 C 112.66 94.69 104.83 100.86 109.26 103.74 C 113.68 106.63 120.61 101.56 120.99 109.01 C 121.37 116.46 116.81 114.40 117.00 120.00
C 117.44 120.82 117.98 120.67 118.00 122.00
C 118.11 128.21 106.86 123.96 112.00 119.00
C 102.04 117.95 90.36 119.92 81.00 119.00 C 71.64 118.08 57.86 122.79 55.00 114.00
C 54.73 112.91 54.55 110.98 54.00 110.00
C 51.44 107.00 49.51 114.64 49.00 116.00
C 49.42 120.08 40.72 120.44 40.08 116.92 C 39.45 113.39 42.46 109.62 44.00 107.00
C 44.75 105.72 45.48 104.37 46.00 103.00
C 46.44 101.85 46.91 100.30 47.00 99.00
C 48.27 99.18 40.87 94.65 38.00 97.00
C 33.47 103.82 34.28 122.59 23.00 118.00
C 21.32 116.22 22.53 115.61 23.00 114.00
C 24.37 109.35 27.20 104.77 28.00 100.00
C 27.82 99.03 28.14 97.97 28.00 97.00
C 12.64 94.15 32.95 91.84 41.00 93.00 C 49.05 94.16 63.32 91.30 71.00 94.00
M 26.00 120.00 
C 28.16 122.16 23.09 127.70 20.33 124.67 C 17.57 121.64 23.60 117.60 26.00 120.00
M 41.00 125.00 
C 31.72 124.78 42.26 115.11 41.00 125.00
M 85.00 121.00 
C 85.19 126.08 78.22 124.95 80.00 120.00
C 82.15 119.92 82.58 123.28 85.00 121.00
M 101.00 120.00 
C 100.28 130.89 90.67 118.65 101.00 120.00
M 133.00 120.00 
C 132.52 124.19 129.94 123.79 128.00 121.00
C 129.10 119.04 131.40 122.07 133.00 120.00
M 68.00 146.00 
C 67.54 145.87 67.00 146.00 67.00 146.00
C 66.50 146.00 66.00 146.00 66.00 146.00
C 65.50 146.00 64.50 146.00 64.00 146.00
C 63.50 146.00 63.00 146.00 63.00 146.00
C 61.32 146.19 61.17 145.43 61.00 144.00
C 59.57 141.23 75.26 143.06 78.00 142.00
C 81.62 148.86 70.73 146.41 68.00 146.00
M 86.00 146.00 
C 86.45 146.80 86.36 142.36 86.00 143.00
C 87.62 140.11 97.11 144.03 100.00 142.00
C 103.34 151.73 90.17 145.28 86.00 146.00 Z"/>
</g>
<g fill="None" fill-opacity="0.0" stroke="#C6B1D8" stroke-opacity="1.00" stroke-width="0.3"><path d="
M 71.00 15.00 
C 70.18 12.57 68.05 11.94 66.00 13.00
C 67.29 18.61 64.03 17.24 60.00 17.00
C 60.45 20.40 58.08 27.61 64.00 26.00
C 62.37 24.12 61.38 22.11 62.00 18.00
C 62.94 22.42 66.10 21.15 70.00 21.00
C 67.31 20.23 66.15 16.86 70.00 19.00
C 68.94 16.80 66.37 13.18 71.00 15.00 Z"/>
</g>
<g fill="None" fill-opacity="0.0" stroke="#A993BC" stroke-opacity="1.00" stroke-width="0.3"><path d="
M 104.00 25.00 
C 102.73 24.01 101.30 19.05 103.00 18.00
C 98.19 17.64 92.17 16.33 98.00 13.00
C 94.98 12.46 91.76 13.22 93.00 17.00
C 88.15 15.03 80.87 20.36 86.92 21.93 C 92.98 23.50 96.18 20.08 102.00 22.00
C 100.92 24.97 103.45 24.83 104.00 25.00
M 101.00 18.00 
C 102.10 22.96 95.52 18.75 101.00 18.00 Z"/>
</g>
<g fill="None" fill-opacity="0.0" stroke="#B7A4C9" stroke-opacity="1.00" stroke-width="0.3"><path d="
M 56.00 17.00 
C 54.22 15.22 49.12 18.60 51.78 21.22 C 54.43 23.84 57.81 18.81 56.00 17.00 Z"/>
</g>
<g fill="None" fill-opacity="0.0" stroke="#9982AE" stroke-opacity="1.00" stroke-width="0.3"><path d="
M 78.00 22.00 
C 77.70 20.71 76.41 19.57 77.00 18.00
C 78.26 18.08 77.56 20.06 79.00 20.00
C 78.93 14.97 73.49 18.46 71.00 17.00
C 71.75 20.18 75.33 18.94 71.00 21.00
C 73.31 21.76 75.22 21.89 78.00 22.00 Z"/>
</g>
<g fill="None" fill-opacity="0.0" stroke="#E4CEF3" stroke-opacity="1.00" stroke-width="0.3"><path d="
M 79.00 20.00 
C 77.56 20.06 78.26 18.08 77.00 18.00
C 76.41 19.57 77.70 20.71 78.00 22.00
C 78.88 25.79 77.48 24.28 80.00 25.00
C 81.11 23.96 80.67 23.51 81.00 22.00
C 82.00 20.45 82.41 18.51 81.00 17.00
C 80.06 18.72 79.38 19.79 79.00 20.00 Z"/>
</g>
<g fill="None" fill-opacity="0.0" stroke="#DAC4ED" stroke-opacity="1.00" stroke-width="0.3"><path d="
M 103.00 18.00 
C 101.30 19.05 102.73 24.01 104.00 25.00
C 105.62 26.21 108.34 26.47 109.00 24.00
C 103.09 26.37 108.67 19.34 106.00 17.00
C 103.75 22.26 105.30 18.80 103.00 18.00 Z"/>
</g>
<g fill="None" fill-opacity="0.0" stroke="#EDDCF5" stroke-opacity="1.00" stroke-width="0.3"><path d="
M 59.00 18.00 
C 58.10 17.10 55.90 19.50 57.29 20.63 C 58.69 21.77 59.81 18.81 59.00 18.00 Z"/>
</g>
<g fill="None" fill-opacity="0.0" stroke="#5D4674" stroke-opacity="1.00" stroke-width="0.3"><path d="
M 101.00 18.00 
C 95.52 18.75 102.10 22.96 101.00 18.00 Z"/>
</g>
<g fill="None" fill-opacity="0.0" stroke="#977EB4" stroke-opacity="1.00" stroke-width="0.3"><path d="
M 80.00 25.00 
C 80.50 26.76 82.72 25.72 84.00 26.00
C 84.41 23.74 81.53 23.65 81.00 22.00
C 80.67 23.51 81.11 23.96 80.00 25.00 Z"/>
</g>
<g fill="None" fill-opacity="0.0" stroke="#76618D" stroke-opacity="1.00" stroke-width="0.3"><path d="
M 67.00 30.00 
C 66.61 30.82 67.31 32.15 67.00 33.00
C 69.03 33.64 69.06 31.31 69.00 30.00
C 67.65 29.13 68.42 29.09 67.00 30.00 Z"/>
</g>
<g fill="None" fill-opacity="0.0" stroke="#A58CC7" stroke-opacity="1.00" stroke-width="0.3"><path d="
M 76.00 30.00 
C 76.23 30.36 76.00 31.00 76.00 31.00
C 77.18 30.85 78.06 31.43 79.00 32.00
C 79.02 29.60 77.59 28.82 76.00 30.00 Z"/>
</g>
<g fill="None" fill-opacity="0.0" stroke="#C0ACD6" stroke-opacity="1.00" stroke-width="0.3"><path d="
M 84.00 31.00 
C 82.26 33.74 82.51 36.96 85.00 37.00
C 85.00 36.00 85.00 35.00 85.00 34.00
C 89.09 35.22 81.29 45.13 89.00 42.00
C 86.06 40.73 87.96 39.04 88.00 37.00
C 88.03 35.37 88.54 32.52 88.00 31.00
C 85.70 31.16 87.24 28.65 84.00 31.00 Z"/>
</g>
<g fill="None" fill-opacity="0.0" stroke="#9987AF" stroke-opacity="1.00" stroke-width="0.3"><path d="
M 88.00 31.00 
C 88.54 32.52 88.03 35.37 88.00 37.00
C 91.04 40.36 94.94 36.99 99.00 38.00
C 98.96 37.00 99.05 36.00 99.00 35.00
C 98.74 34.88 98.35 34.03 98.00 34.00
C 96.18 33.83 92.37 34.35 91.00 33.00
C 91.62 33.11 89.72 35.42 89.23 32.76 C 88.74 30.11 90.37 30.28 91.00 31.00
C 92.14 31.03 92.72 32.53 94.00 32.00
C 94.12 26.52 89.84 30.87 88.00 31.00 Z"/>
</g>
<g fill="None" fill-opacity="0.0" stroke="#85709D" stroke-opacity="1.00" stroke-width="0.3"><path d="
M 50.00 34.00 
C 51.45 32.88 49.76 36.61 48.00 37.00
C 45.53 40.56 52.83 36.85 55.00 38.00
C 55.21 37.02 54.62 35.30 56.00 35.00
C 57.53 34.67 58.24 35.46 58.00 38.00
C 59.98 37.53 57.89 34.40 60.00 34.00
C 60.18 32.35 59.83 30.49 58.00 30.00
C 57.19 33.94 52.28 33.67 50.00 34.00 Z"/>
</g>
<g fill="None" fill-opacity="0.0" stroke="#C6B6D6" stroke-opacity="1.00" stroke-width="0.3"><path d="
M 70.00 37.00 
C 70.08 36.99 69.85 35.45 70.00 35.00
C 70.77 32.59 71.29 31.47 69.00 30.00
C 69.06 31.31 69.03 33.64 67.00 33.00
C 67.31 32.15 66.61 30.82 67.00 30.00
C 64.21 31.80 65.59 32.32 65.08 35.92 C 64.58 39.52 69.26 37.21 70.00 37.00 Z"/>
</g>
<g fill="None" fill-opacity="0.0" stroke="#C9B9DA" stroke-opacity="1.00" stroke-width="0.3"><path d="
M 75.00 31.00 
C 74.59 33.05 74.19 34.87 74.00 37.00
C 73.32 33.28 69.85 34.73 72.00 38.00
C 73.91 39.58 76.86 37.48 76.00 35.00
C 78.70 36.30 78.03 37.36 81.00 38.00
C 82.85 36.26 80.75 34.95 81.00 34.00
C 78.63 35.20 76.33 33.68 76.00 31.00
C 76.00 31.00 76.23 30.36 76.00 30.00
C 75.98 29.97 75.24 30.74 75.00 31.00 Z"/>
</g>
<g fill="None" fill-opacity="0.0" stroke="#DDCAF1" stroke-opacity="1.00" stroke-width="0.3"><path d="
M 91.00 33.00 
C 90.75 32.75 91.02 31.00 91.00 31.00
C 90.37 30.28 88.74 30.11 89.23 32.76 C 89.72 35.42 91.62 33.11 91.00 33.00 Z"/>
</g>
<g fill="None" fill-opacity="0.0" stroke="#DFC9EF" stroke-opacity="1.00" stroke-width="0.3"><path d="
M 121.00 38.00 
C 122.75 35.24 120.61 30.15 117.00 30.00
C 119.58 32.13 119.79 35.53 121.00 38.00 Z"/>
</g>
<g fill="None" fill-opacity="0.0" stroke="#75648D" stroke-opacity="1.00" stroke-width="0.3"><path d="
M 70.00 35.00 
C 69.85 35.45 70.08 36.99 70.00 37.00
C 70.64 36.89 71.47 37.74 72.00 38.00
C 69.85 34.73 73.32 33.28 74.00 37.00
C 74.19 34.87 74.59 33.05 75.00 31.00
C 73.57 32.54 71.49 33.33 70.00 35.00 Z"/>
</g>
<g fill="None" fill-opacity="0.0" stroke="#73608B" stroke-opacity="1.00" stroke-width="0.3"><path d="
M 81.00 34.00 
C 80.75 34.95 82.85 36.26 81.00 38.00
C 83.62 38.56 82.63 38.75 85.00 37.00
C 82.51 36.96 82.26 33.74 84.00 31.00
C 83.35 31.47 81.18 33.32 81.00 34.00 Z"/>
</g>
<g fill="None" fill-opacity="0.0" stroke="#B29BC4" stroke-opacity="1.00" stroke-width="0.3"><path d="
M 43.00 34.00 
C 33.34 30.91 41.65 45.03 43.00 34.00 Z"/>
</g>
<g fill="None" fill-opacity="0.0" stroke="#8D79A0" stroke-opacity="1.00" stroke-width="0.3"><path d="
M 61.00 34.00 
C 61.29 34.49 61.17 37.44 61.00 38.00
C 61.57 37.63 64.53 38.79 63.97 36.03 C 63.42 33.26 62.93 32.73 61.00 34.00 Z"/>
</g>
<g fill="None" fill-opacity="0.0" stroke="#6D5985" stroke-opacity="1.00" stroke-width="0.3"><path d="
M 98.00 34.00 
C 98.35 34.03 98.74 34.88 99.00 35.00
C 99.00 35.00 99.61 35.21 100.00 35.00
C 103.14 33.34 101.18 36.08 101.00 38.00
C 101.46 38.13 102.70 38.24 103.00 38.00
C 103.06 37.23 104.06 34.07 104.00 34.00
C 101.96 31.73 99.83 33.96 98.00 34.00 Z"/>
</g>
<g fill="None" fill-opacity="0.0" stroke="#C1ABD3" stroke-opacity="1.00" stroke-width="0.3"><path d="
M 48.00 37.00 
C 49.76 36.61 51.45 32.88 50.00 34.00
C 45.44 32.96 43.58 34.92 43.00 39.00
C 44.58 38.69 46.32 38.51 46.10 36.12 C 45.87 33.73 49.26 36.72 48.00 37.00 Z"/>
</g>
<g fill="None" fill-opacity="0.0" stroke="#D2BEE1" stroke-opacity="1.00" stroke-width="0.3"><path d="
M 56.00 35.00 
C 55.65 36.50 57.38 40.75 58.00 42.00
C 58.06 42.07 58.87 41.35 59.00 41.00
C 59.37 40.02 60.82 38.59 61.00 38.00
C 61.17 37.44 61.29 34.49 61.00 34.00
C 61.00 34.00 60.08 33.82 60.00 34.00
C 57.89 34.40 59.98 37.53 58.00 38.00
C 58.24 35.46 57.53 34.67 56.00 35.00 Z"/>
</g>
<g fill="None" fill-opacity="0.0" stroke="#DAC9E9" stroke-opacity="1.00" stroke-width="0.3"><path d="
M 100.00 35.00 
C 100.33 36.05 99.55 37.58 101.00 38.00
C 101.18 36.08 103.14 33.34 100.00 35.00 Z"/>
</g>
<g fill="None" fill-opacity="0.0" stroke="#DFCEE8" stroke-opacity="1.00" stroke-width="0.3"><path d="
M 103.00 38.00 
C 102.93 38.90 102.63 41.19 103.00 42.00
C 104.38 41.74 103.79 39.95 104.00 39.00
C 104.47 36.91 105.78 35.84 104.00 34.00
C 104.06 34.07 103.06 37.23 103.00 38.00 Z"/>
</g>
<g fill="None" fill-opacity="0.0" stroke="#FDEEFF" stroke-opacity="1.00" stroke-width="0.3"><path d="
M 106.00 41.00 
C 106.23 41.28 106.82 42.10 107.00 42.00
C 107.28 41.83 107.00 38.44 107.00 38.00
C 107.00 37.27 106.72 35.66 107.00 35.00
C 106.27 35.38 105.40 38.08 106.00 41.00 Z"/>
</g>
<g fill="None" fill-opacity="0.0" stroke="#9D8BAA" stroke-opacity="1.00" stroke-width="0.3"><path d="
M 107.00 35.00 
C 106.72 35.66 107.00 37.27 107.00 38.00
C 107.25 38.49 109.78 38.71 110.00 38.00
C 107.99 37.70 107.27 34.50 110.00 35.00
C 109.58 33.79 107.48 33.88 107.00 35.00 Z"/>
</g>
<g fill="None" fill-opacity="0.0" stroke="#D7C0EC" stroke-opacity="1.00" stroke-width="0.3"><path d="
M 115.00 37.00 
C 115.85 32.84 112.89 35.80 111.00 34.00
C 111.45 37.40 109.08 44.61 115.00 43.00
C 113.58 41.63 111.42 37.58 115.00 37.00 Z"/>
</g>
<g fill="None" fill-opacity="0.0" stroke="#CCB7DB" stroke-opacity="1.00" stroke-width="0.3"><path d="
M 118.00 34.00 
C 112.73 35.19 119.56 40.97 118.00 34.00 Z"/>
</g>
<g fill="None" fill-opacity="0.0" stroke="#F3E3F6" stroke-opacity="1.00" stroke-width="0.3"><path d="
M 110.00 38.00 
C 110.16 37.49 110.18 35.50 110.00 35.00
C 107.27 34.50 107.99 37.70 110.00 38.00 Z"/>
</g>
<g fill="None" fill-opacity="0.0" stroke="#9178B5" stroke-opacity="1.00" stroke-width="0.3"><path d="
M 103.00 42.00 
C 103.54 43.19 106.80 43.66 107.00 42.00
C 106.82 42.10 106.23 41.28 106.00 41.00
C 105.60 40.51 104.15 39.58 104.00 39.00
C 103.79 39.95 104.38 41.74 103.00 42.00 Z"/>
</g>
<g fill="None" fill-opacity="0.0" stroke="#A084C9" stroke-opacity="1.00" stroke-width="0.3"><path d="
M 58.00 42.00 
C 58.73 44.01 61.70 42.72 62.00 41.00
C 61.01 41.09 59.99 40.88 59.00 41.00
C 58.87 41.35 58.06 42.07 58.00 42.00 Z"/>
</g>
<g fill="None" fill-opacity="0.0" stroke="#613958" stroke-opacity="1.00" stroke-width="0.3"><path d="
M 62.00 71.00 
C 62.48 69.84 62.46 68.16 63.00 67.00
C 64.20 64.43 68.48 60.16 71.00 59.00
C 74.40 57.43 78.24 58.12 82.00 58.00
C 81.70 56.43 82.25 54.39 84.00 54.00
C 84.25 53.71 84.00 53.00 84.00 53.00
C 81.74 52.63 80.51 55.07 81.00 57.00
C 71.42 54.73 61.56 62.84 62.00 71.00 Z"/>
</g>
<g fill="None" fill-opacity="0.0" stroke="#775052" stroke-opacity="1.00" stroke-width="0.3"><path d="
M 84.00 54.00 
C 91.94 54.72 100.05 53.46 108.00 54.00
C 108.00 55.33 108.00 56.67 108.00 58.00
C 106.81 56.07 110.60 52.35 104.00 53.00 C 97.40 53.65 90.60 52.40 84.00 53.00
C 84.00 53.00 84.25 53.71 84.00 54.00 Z"/>
</g>
<g fill="None" fill-opacity="0.0" stroke="#F3BA30" stroke-opacity="1.00" stroke-width="0.3"><path d="
M 71.00 59.00 
C 69.50 59.82 63.82 65.57 63.00 67.00
C 62.46 68.16 62.48 69.84 62.00 71.00
C 61.71 71.70 61.26 72.28 61.00 73.00
C 59.84 76.21 57.40 78.60 57.00 82.00
C 62.11 81.91 67.61 70.90 72.00 79.00
C 72.11 79.48 71.88 80.53 72.00 81.00
C 72.09 81.35 72.88 81.74 73.00 82.00
C 76.59 82.52 80.39 81.61 84.00 82.00
C 84.56 76.45 96.58 72.89 96.00 81.00
C 98.81 82.62 98.35 81.61 100.00 80.00
C 101.27 78.30 99.85 72.74 105.00 75.00
C 103.83 74.21 100.15 72.82 103.00 71.00
C 103.04 71.04 103.96 69.10 104.00 69.00
C 104.45 67.87 104.41 67.92 105.00 67.00
C 105.44 66.33 105.71 65.73 106.00 65.00
C 106.53 63.66 105.89 63.97 107.00 63.00
C 109.01 61.25 112.14 62.92 114.00 61.00
C 111.74 61.41 109.28 60.69 107.00 61.00
C 107.11 60.00 106.53 58.27 108.00 58.00
C 108.00 56.67 108.00 55.33 108.00 54.00
C 100.05 53.46 91.94 54.72 84.00 54.00
C 82.25 54.39 81.70 56.43 82.00 58.00
C 78.24 58.12 74.40 57.43 71.00 59.00
M 92.00 66.00 
C 91.82 66.09 91.73 69.18 90.00 68.00
C 89.95 66.24 91.53 64.93 91.00 63.00
C 90.98 63.54 87.48 60.61 91.04 61.03 C 94.59 61.46 93.83 60.65 97.00 61.00
C 97.11 63.80 94.06 65.02 92.00 66.00
M 77.00 64.00 
C 77.44 68.61 70.58 66.55 68.00 67.00
C 68.41 66.17 68.97 65.13 70.00 65.00
C 71.35 63.23 76.59 59.71 77.00 64.00 Z"/>
</g>
<g fill="None" fill-opacity="0.0" stroke="#865D30" stroke-opacity="1.00" stroke-width="0.3"><path d="
M 114.00 61.00 
C 114.25 60.74 114.00 60.00 114.00 60.00
C 111.39 60.22 109.40 60.28 108.00 58.00
C 106.53 58.27 107.11 60.00 107.00 61.00
C 109.28 60.69 111.74 61.41 114.00 61.00 Z"/>
</g>
<g fill="None" fill-opacity="0.0" stroke="#81554B" stroke-opacity="1.00" stroke-width="0.3"><path d="
M 63.00 67.00 
C 63.82 65.57 69.50 59.82 71.00 59.00
C 68.48 60.16 64.20 64.43 63.00 67.00 Z"/>
</g>
<g fill="None" fill-opacity="0.0" stroke="#AF867D" stroke-opacity="1.00" stroke-width="0.3"><path d="
M 114.00 61.00 
C 112.14 62.92 109.01 61.25 107.00 63.00
C 108.17 62.42 110.68 63.13 112.00 63.00
C 113.33 63.00 114.67 63.00 116.00 63.00
C 116.25 61.49 115.24 60.56 114.00 60.00
C 114.00 60.00 114.25 60.74 114.00 61.00 Z"/>
</g>
<g fill="None" fill-opacity="0.0" stroke="#B28230" stroke-opacity="1.00" stroke-width="0.3"><path d="
M 91.00 63.00 
C 90.44 62.46 93.71 61.54 94.00 62.00
C 94.55 63.82 92.25 64.47 92.00 66.00
C 94.06 65.02 97.11 63.80 97.00 61.00
C 93.83 60.65 94.59 61.46 91.04 61.03 C 87.48 60.61 90.98 63.54 91.00 63.00 Z"/>
</g>
<g fill="None" fill-opacity="0.0" stroke="#613B4B" stroke-opacity="1.00" stroke-width="0.3"><path d="
M 70.00 65.00 
C 71.10 64.75 76.44 67.83 77.00 64.00
C 76.59 59.71 71.35 63.23 70.00 65.00
M 76.00 63.00 
C 73.72 67.57 70.30 62.25 76.00 63.00 Z"/>
</g>
<g fill="None" fill-opacity="0.0" stroke="#754A36" stroke-opacity="1.00" stroke-width="0.3"><path d="
M 91.00 63.00 
C 91.53 64.93 89.95 66.24 90.00 68.00
C 91.73 69.18 91.82 66.09 92.00 66.00
C 92.25 64.47 94.55 63.82 94.00 62.00
C 93.71 61.54 90.44 62.46 91.00 63.00 Z"/>
</g>
<g fill="None" fill-opacity="0.0" stroke="#5B3D78" stroke-opacity="1.00" stroke-width="0.3"><path d="
M 76.00 63.00 
C 70.30 62.25 73.72 67.57 76.00 63.00 Z"/>
</g>
<g fill="None" fill-opacity="0.0" stroke="#6C4026" stroke-opacity="1.00" stroke-width="0.3"><path d="
M 106.00 65.00 
C 107.36 64.23 110.83 65.99 112.00 65.00
C 112.00 64.50 111.88 63.03 112.00 63.00
C 110.68 63.13 108.17 62.42 107.00 63.00
C 105.89 63.97 106.53 63.66 106.00 65.00 Z"/>
</g>
<g fill="None" fill-opacity="0.0" stroke="#8E5F2B" stroke-opacity="1.00" stroke-width="0.3"><path d="
M 70.00 65.00 
C 68.97 65.13 68.41 66.17 68.00 67.00
C 70.58 66.55 77.44 68.61 77.00 64.00
C 76.44 67.83 71.10 64.75 70.00 65.00 Z"/>
</g>
<g fill="None" fill-opacity="0.0" stroke="#D3A984" stroke-opacity="1.00" stroke-width="0.3"><path d="
M 105.00 67.00 
C 106.06 66.48 108.79 67.00 110.00 67.00
C 110.50 67.00 111.75 67.25 112.00 67.00
C 112.22 66.63 112.00 65.50 112.00 65.00
C 110.83 65.99 107.36 64.23 106.00 65.00
C 105.71 65.73 105.44 66.33 105.00 67.00 Z"/>
</g>
<g fill="None" fill-opacity="0.0" stroke="#6D4027" stroke-opacity="1.00" stroke-width="0.3"><path d="
M 104.00 69.00 
C 105.01 68.46 106.89 69.34 108.00 69.00
C 108.40 68.88 109.69 67.09 110.00 67.00
C 108.79 67.00 106.06 66.48 105.00 67.00
C 104.41 67.92 104.45 67.87 104.00 69.00 Z"/>
</g>
<g fill="None" fill-opacity="0.0" stroke="#704752" stroke-opacity="1.00" stroke-width="0.3"><path d="
M 108.00 69.00 
C 107.36 69.97 108.32 71.60 104.00 71.00
C 102.68 73.83 106.81 72.96 105.00 76.00
C 107.90 74.77 104.92 70.47 110.00 72.00
C 108.96 69.38 111.09 68.50 112.00 67.00
C 111.75 67.25 110.50 67.00 110.00 67.00
C 109.69 67.09 108.40 68.88 108.00 69.00 Z"/>
</g>
<g fill="None" fill-opacity="0.0" stroke="#C59A87" stroke-opacity="1.00" stroke-width="0.3"><path d="
M 103.00 71.00 
C 103.26 70.75 104.00 71.00 104.00 71.00
C 108.32 71.60 107.36 69.97 108.00 69.00
C 106.89 69.34 105.01 68.46 104.00 69.00
C 103.96 69.10 103.04 71.04 103.00 71.00 Z"/>
</g>
<g fill="None" fill-opacity="0.0" stroke="#9B6D4C" stroke-opacity="1.00" stroke-width="0.3"><path d="
M 100.00 80.00 
C 101.76 79.50 100.72 77.28 101.00 76.00
C 101.86 75.49 104.28 76.66 105.00 76.00
C 106.81 72.96 102.68 73.83 104.00 71.00
C 104.00 71.00 103.26 70.75 103.00 71.00
C 100.15 72.82 103.83 74.21 105.00 75.00
C 99.85 72.74 101.27 78.30 100.00 80.00 Z"/>
</g>
<g fill="None" fill-opacity="0.0" stroke="#805A4E" stroke-opacity="1.00" stroke-width="0.3"><path d="
M 61.00 82.00 
C 62.90 81.32 64.35 78.48 66.00 78.00
C 67.54 77.37 70.75 76.46 72.00 79.00
C 67.61 70.90 62.11 81.91 57.00 82.00
C 57.40 78.60 59.84 76.21 61.00 73.00
C 59.04 75.87 52.09 85.18 61.00 82.00 Z"/>
</g>
<g fill="None" fill-opacity="0.0" stroke="#7A564F" stroke-opacity="1.00" stroke-width="0.3"><path d="
M 73.00 82.00 
C 73.19 82.41 73.00 83.00 73.00 83.00
C 75.62 83.52 82.52 83.92 85.00 83.00
C 87.79 81.97 88.59 76.71 93.00 78.00
C 94.69 78.50 94.72 80.27 96.00 81.00
C 96.58 72.89 84.56 76.45 84.00 82.00
C 80.39 81.61 76.59 82.52 73.00 82.00 Z"/>
</g>
<g fill="None" fill-opacity="0.0" stroke="#57313D" stroke-opacity="1.00" stroke-width="0.3"><path d="
M 66.00 78.00 
C 66.60 77.82 68.39 77.85 69.00 78.00
C 70.27 78.31 71.36 80.16 72.00 81.00
C 71.88 80.53 72.11 79.48 72.00 79.00
C 70.75 76.46 67.54 77.37 66.00 78.00 Z"/>
</g>
<g fill="None" fill-opacity="0.0" stroke="#E7DFEF" stroke-opacity="1.00" stroke-width="0.3"><path d="
M 61.00 82.00 
C 59.12 91.23 69.15 82.17 70.00 82.00
C 69.46 81.42 70.24 78.55 69.00 78.00
C 68.39 77.85 66.60 77.82 66.00 78.00
C 64.35 78.48 62.90 81.32 61.00 82.00
M 67.00 81.00 
C 66.75 86.59 61.38 81.31 67.00 81.00 Z"/>
</g>
<g fill="None" fill-opacity="0.0" stroke="#755473" stroke-opacity="1.00" stroke-width="0.3"><path d="
M 70.00 82.00 
C 69.96 81.96 72.82 82.96 73.00 83.00
C 73.00 83.00 73.19 82.41 73.00 82.00
C 72.88 81.74 72.09 81.35 72.00 81.00
C 71.36 80.16 70.27 78.31 69.00 78.00
C 70.24 78.55 69.46 81.42 70.00 82.00 Z"/>
</g>
<g fill="None" fill-opacity="0.0" stroke="#E0D5E9" stroke-opacity="1.00" stroke-width="0.3"><path d="
M 85.00 83.00 
C 84.52 92.28 98.92 81.61 93.00 78.00
C 88.59 76.71 87.79 81.97 85.00 83.00
M 91.00 81.00 
C 90.75 86.59 85.38 81.31 91.00 81.00 Z"/>
</g>
<g fill="None" fill-opacity="0.0" stroke="#595374" stroke-opacity="1.00" stroke-width="0.3"><path d="
M 67.00 81.00 
C 61.38 81.31 66.75 86.59 67.00 81.00 Z"/>
</g>
<g fill="None" fill-opacity="0.0" stroke="#61526D" stroke-opacity="1.00" stroke-width="0.3"><path d="
M 91.00 81.00 
C 85.38 81.31 90.75 86.59 91.00 81.00 Z"/>
</g>
<g fill="None" fill-opacity="0.0" stroke="#865D59" stroke-opacity="1.00" stroke-width="0.3"><path d="
M 28.00 100.00 
C 28.93 94.48 26.37 97.25 22.00 95.00
C 37.43 92.67 54.82 94.66 71.00 94.00
C 63.32 91.30 49.05 94.16 41.00 93.00 C 32.95 91.84 12.64 94.15 28.00 97.00
C 28.14 97.97 27.82 99.03 28.00 100.00 Z"/>
</g>
<g fill="None" fill-opacity="0.0" stroke="#8B5D4F" stroke-opacity="1.00" stroke-width="0.3"><path d="
M 72.00 94.00 
C 72.24 94.22 72.02 96.63 72.00 97.00
C 72.11 97.24 73.55 95.42 74.00 98.00
C 74.34 96.74 74.86 95.83 74.00 94.00
C 76.67 94.00 79.33 94.00 82.00 94.00
C 81.77 93.65 82.00 93.00 82.00 93.00
C 78.64 92.70 75.02 92.93 72.00 94.00 Z"/>
</g>
<g fill="None" fill-opacity="0.0" stroke="#684457" stroke-opacity="1.00" stroke-width="0.3"><path d="
M 82.00 94.00 
C 83.71 96.61 78.50 108.56 77.00 112.00
C 78.91 114.57 83.09 114.98 86.00 112.00
C 86.96 107.92 89.06 104.12 90.00 100.00
C 90.35 98.48 90.08 94.55 91.00 94.00
C 92.97 92.83 96.86 94.88 99.00 94.00
C 96.68 92.15 91.75 92.65 89.00 94.00
C 89.76 100.66 87.00 114.41 78.00 113.00
C 77.02 109.22 87.49 94.58 82.00 93.00
C 82.00 93.00 81.77 93.65 82.00 94.00 Z"/>
</g>
<g fill="None" fill-opacity="0.0" stroke="#825B58" stroke-opacity="1.00" stroke-width="0.3"><path d="
M 104.00 94.00 
C 108.17 92.55 115.63 94.23 120.00 94.00 C 124.37 93.77 132.07 93.18 136.00 94.00 C 139.93 94.82 149.44 91.57 152.00 94.00
C 150.69 90.66 139.86 93.95 136.00 93.00 C 132.14 92.05 123.50 93.65 119.00 93.00 C 114.50 92.35 107.94 93.34 104.00 94.00 Z"/>
</g>
<g fill="None" fill-opacity="0.0" stroke="#ECB740" stroke-opacity="1.00" stroke-width="0.3"><path d="
M 28.00 100.00 
C 27.20 104.77 24.37 109.35 23.00 114.00
C 23.17 114.97 22.86 116.02 23.00 117.00
C 25.73 117.49 28.02 116.70 30.00 115.00
C 33.69 109.73 33.84 101.73 37.00 96.00
C 46.33 96.00 55.67 96.00 65.00 96.00
C 65.60 99.04 62.39 100.93 63.00 104.00
C 60.55 107.10 55.41 106.47 52.00 105.00
C 52.95 104.13 52.54 102.32 54.00 102.00
C 54.14 101.63 54.18 99.35 54.00 99.00
C 52.00 99.00 50.00 99.00 48.00 99.00
C 47.85 100.41 47.35 102.34 46.00 103.00
C 45.48 104.37 44.75 105.72 44.00 107.00
C 43.25 108.92 42.35 111.90 42.00 114.00
C 42.18 114.97 41.86 116.03 42.00 117.00
C 44.00 117.00 46.00 117.00 48.00 117.00
C 48.25 116.74 48.00 116.00 48.00 116.00
C 48.74 112.87 51.31 105.21 54.00 110.00
C 54.55 110.98 54.73 112.91 55.00 114.00
C 55.23 114.48 55.70 115.35 56.00 116.00
C 57.65 117.92 66.05 118.05 66.00 115.00
C 65.42 113.94 58.53 112.40 61.00 108.00
C 67.95 109.53 71.58 102.70 72.00 97.00
C 72.02 96.63 72.24 94.22 72.00 94.00
C 72.00 94.00 71.50 94.00 71.00 94.00
C 54.82 94.66 37.43 92.67 22.00 95.00
C 26.37 97.25 28.93 94.48 28.00 100.00 Z"/>
</g>
<g fill="None" fill-opacity="0.0" stroke="#EDB73E" stroke-opacity="1.00" stroke-width="0.3"><path d="
M 74.00 98.00 
C 72.78 102.52 71.46 107.89 69.00 112.00
C 68.71 113.62 69.22 115.37 69.00 117.00
C 75.67 117.00 82.33 117.00 89.00 117.00
C 93.19 115.04 94.58 108.91 96.00 105.00
C 97.28 101.48 98.79 97.85 99.00 94.00
C 96.86 94.88 92.97 92.83 91.00 94.00
C 93.23 96.69 90.73 98.18 90.00 100.00
C 89.06 104.12 86.96 107.92 86.00 112.00
C 85.89 112.47 86.00 113.00 86.00 113.00
C 84.74 117.83 73.22 116.63 76.00 113.00
C 76.22 112.71 76.89 112.26 77.00 112.00
C 78.50 108.56 83.71 96.61 82.00 94.00
C 79.33 94.00 76.67 94.00 74.00 94.00
C 74.86 95.83 74.34 96.74 74.00 98.00 Z"/>
</g>
<g fill="None" fill-opacity="0.0" stroke="#98724B" stroke-opacity="1.00" stroke-width="0.3"><path d="
M 90.00 100.00 
C 90.73 98.18 93.23 96.69 91.00 94.00
C 90.08 94.55 90.35 98.48 90.00 100.00 Z"/>
</g>
<g fill="None" fill-opacity="0.0" stroke="#825733" stroke-opacity="1.00" stroke-width="0.3"><path d="
M 96.00 105.00 
C 96.18 105.47 97.70 105.73 98.00 106.00
C 100.78 103.81 98.98 95.74 104.00 94.00
C 101.56 94.41 101.23 94.35 99.00 94.00
C 98.79 97.85 97.28 101.48 96.00 105.00 Z"/>
</g>
<g fill="None" fill-opacity="0.0" stroke="#E9B449" stroke-opacity="1.00" stroke-width="0.3"><path d="
M 98.00 106.00 
C 101.65 109.33 107.01 107.65 112.00 108.00
C 112.00 109.33 112.00 110.67 112.00 112.00
C 111.70 114.01 110.11 115.42 108.00 115.00
C 106.00 115.18 91.59 114.59 94.00 117.00
C 97.29 118.56 110.41 117.93 114.00 117.00
C 125.83 112.07 116.15 101.29 106.00 106.00
C 105.16 102.23 107.14 99.32 108.00 96.00
C 116.67 96.00 125.33 96.00 134.00 96.00
C 133.54 103.86 127.28 110.05 127.00 118.00
C 135.75 120.61 134.68 109.92 139.00 106.00
C 139.00 106.00 138.92 105.49 139.00 105.00
C 139.52 101.83 141.30 99.13 142.00 96.00
C 145.00 96.00 148.00 96.00 151.00 96.00
C 151.33 95.72 152.86 94.82 152.00 94.00
C 149.44 91.57 139.93 94.82 136.00 94.00 C 132.07 93.18 124.37 93.77 120.00 94.00 C 115.63 94.23 108.17 92.55 104.00 94.00
C 98.98 95.74 100.78 103.81 98.00 106.00 Z"/>
</g>
<g fill="None" fill-opacity="0.0" stroke="#69434F" stroke-opacity="1.00" stroke-width="0.3"><path d="
M 30.00 115.00 
C 28.74 116.80 25.60 119.78 23.00 118.00
C 34.28 122.59 33.47 103.82 38.00 97.00
C 40.87 94.65 48.27 99.18 47.00 99.00
C 48.80 99.26 52.52 96.11 54.00 99.00
C 54.18 99.35 54.14 101.63 54.00 102.00
C 53.89 101.67 56.18 97.95 54.00 97.00
C 57.00 97.00 60.00 97.00 63.00 97.00
C 63.67 100.20 61.59 102.60 60.00 105.00
C 60.79 104.88 62.42 104.68 63.00 104.00
C 62.39 100.93 65.60 99.04 65.00 96.00
C 55.67 96.00 46.33 96.00 37.00 96.00
C 33.84 101.73 33.69 109.73 30.00 115.00 Z"/>
</g>
<g fill="None" fill-opacity="0.0" stroke="#674253" stroke-opacity="1.00" stroke-width="0.3"><path d="
M 72.00 97.00 
C 71.58 102.70 67.95 109.53 61.00 108.00
C 58.53 112.40 65.42 113.94 66.00 115.00
C 68.30 119.19 57.55 119.31 56.00 116.00
C 55.70 115.35 55.23 114.48 55.00 114.00
C 57.86 122.79 71.64 118.08 81.00 119.00 C 90.36 119.92 102.04 117.95 112.00 119.00
C 106.86 123.96 118.11 128.21 118.00 122.00
C 117.37 125.33 113.76 122.05 112.00 124.00
C 111.10 120.77 114.34 119.38 117.00 120.00
C 116.81 114.40 121.37 116.46 120.99 109.01 C 120.61 101.56 113.68 106.63 109.26 103.74 C 104.83 100.86 112.66 94.69 117.00 97.00 C 121.34 99.31 128.41 95.27 133.00 97.00
C 128.78 101.31 132.36 106.40 127.77 110.77 C 123.18 115.14 127.39 121.42 132.92 118.92 C 138.45 116.41 137.91 110.66 139.00 106.00
C 134.68 109.92 135.75 120.61 127.00 118.00
C 127.28 110.05 133.54 103.86 134.00 96.00
C 125.33 96.00 116.67 96.00 108.00 96.00
C 107.14 99.32 105.16 102.23 106.00 106.00
C 116.15 101.29 125.83 112.07 114.00 117.00
C 110.66 118.39 96.85 119.85 94.00 117.00
C 91.59 114.59 106.00 115.18 108.00 115.00
C 108.04 115.00 108.00 114.00 108.00 114.00
C 103.33 114.00 98.67 114.00 94.00 114.00
C 94.00 104.38 104.72 110.68 111.00 109.00
C 111.76 111.19 109.70 112.32 109.00 114.00
C 109.44 113.84 111.89 112.27 112.00 112.00
C 112.00 110.67 112.00 109.33 112.00 108.00
C 107.01 107.65 101.65 109.33 98.00 106.00
C 97.70 105.73 96.18 105.47 96.00 105.00
C 94.58 108.91 93.19 115.04 89.00 117.00
C 84.83 118.95 66.67 120.88 68.00 113.00
C 65.73 114.89 62.98 112.63 63.00 110.00
C 64.37 109.48 67.16 109.59 69.00 108.00
C 69.37 109.54 67.57 110.40 68.00 112.00
C 68.25 111.75 69.00 112.00 69.00 112.00
C 71.46 107.89 72.78 102.52 74.00 98.00
C 73.55 95.42 72.11 97.24 72.00 97.00 Z"/>
</g>
<g fill="None" fill-opacity="0.0" stroke="#623D51" stroke-opacity="1.00" stroke-width="0.3"><path d="
M 139.00 105.00 
C 140.58 102.77 143.09 100.08 143.00 97.00
C 145.71 96.74 148.98 97.75 151.00 96.00
C 148.00 96.00 145.00 96.00 142.00 96.00
C 141.30 99.13 139.52 101.83 139.00 105.00 Z"/>
</g>
<g fill="None" fill-opacity="0.0" stroke="#5A3977" stroke-opacity="1.00" stroke-width="0.3"><path d="
M 54.00 102.00 
C 54.29 102.91 53.77 104.07 54.00 105.00
C 56.00 105.00 58.00 105.00 60.00 105.00
C 61.59 102.60 63.67 100.20 63.00 97.00
C 60.00 97.00 57.00 97.00 54.00 97.00
C 56.18 97.95 53.89 101.67 54.00 102.00 Z"/>
</g>
<g fill="None" fill-opacity="0.0" stroke="#A87E4C" stroke-opacity="1.00" stroke-width="0.3"><path d="
M 47.00 99.00 
C 46.91 100.30 46.44 101.85 46.00 103.00
C 47.35 102.34 47.85 100.41 48.00 99.00
C 50.00 99.00 52.00 99.00 54.00 99.00
C 52.52 96.11 48.80 99.26 47.00 99.00 Z"/>
</g>
<g fill="None" fill-opacity="0.0" stroke="#9B7145" stroke-opacity="1.00" stroke-width="0.3"><path d="
M 63.00 104.00 
C 62.42 104.68 60.79 104.88 60.00 105.00
C 58.00 105.00 56.00 105.00 54.00 105.00
C 53.77 104.07 54.29 102.91 54.00 102.00
C 52.54 102.32 52.95 104.13 52.00 105.00
C 55.41 106.47 60.55 107.10 63.00 104.00 Z"/>
</g>
<g fill="None" fill-opacity="0.0" stroke="#654155" stroke-opacity="1.00" stroke-width="0.3"><path d="
M 49.00 116.00 
C 48.94 116.16 48.00 116.00 48.00 116.00
C 48.00 116.00 48.25 116.74 48.00 117.00
C 46.32 118.74 43.37 117.73 41.00 118.00
C 41.28 116.72 40.24 114.50 42.00 114.00
C 42.35 111.90 43.25 108.92 44.00 107.00
C 42.46 109.62 39.45 113.39 40.08 116.92 C 40.72 120.44 49.42 120.08 49.00 116.00 Z"/>
</g>
<g fill="None" fill-opacity="0.0" stroke="#875C3F" stroke-opacity="1.00" stroke-width="0.3"><path d="
M 48.00 116.00 
C 48.00 116.00 48.94 116.16 49.00 116.00
C 49.51 114.64 51.44 107.00 54.00 110.00
C 51.31 105.21 48.74 112.87 48.00 116.00 Z"/>
</g>
<g fill="None" fill-opacity="0.0" stroke="#5A3B82" stroke-opacity="1.00" stroke-width="0.3"><path d="
M 68.00 113.00 
C 68.08 112.51 68.00 112.00 68.00 112.00
C 67.57 110.40 69.37 109.54 69.00 108.00
C 67.16 109.59 64.37 109.48 63.00 110.00
C 62.98 112.63 65.73 114.89 68.00 113.00 Z"/>
</g>
<g fill="None" fill-opacity="0.0" stroke="#5A3A7D" stroke-opacity="1.00" stroke-width="0.3"><path d="
M 108.00 114.00 
C 108.50 114.00 109.00 114.00 109.00 114.00
C 109.70 112.32 111.76 111.19 111.00 109.00
C 104.72 110.68 94.00 104.38 94.00 114.00
C 98.67 114.00 103.33 114.00 108.00 114.00 Z"/>
</g>
<g fill="None" fill-opacity="0.0" stroke="#9D7343" stroke-opacity="1.00" stroke-width="0.3"><path d="
M 68.00 113.00 
C 66.67 120.88 84.83 118.95 89.00 117.00
C 82.33 117.00 75.67 117.00 69.00 117.00
C 69.22 115.37 68.71 113.62 69.00 112.00
C 69.00 112.00 68.25 111.75 68.00 112.00
C 68.00 112.00 68.08 112.51 68.00 113.00 Z"/>
</g>
<g fill="None" fill-opacity="0.0" stroke="#6E443A" stroke-opacity="1.00" stroke-width="0.3"><path d="
M 76.00 113.00 
C 76.06 116.65 84.34 115.37 86.00 113.00
C 86.00 113.00 85.89 112.47 86.00 112.00
C 83.09 114.98 78.91 114.57 77.00 112.00
C 76.89 112.26 76.22 112.71 76.00 113.00 Z"/>
</g>
<g fill="None" fill-opacity="0.0" stroke="#8C5D3F" stroke-opacity="1.00" stroke-width="0.3"><path d="
M 109.00 114.00 
C 109.00 114.00 108.50 114.00 108.00 114.00
C 108.00 114.00 108.04 115.00 108.00 115.00
C 110.11 115.42 111.70 114.01 112.00 112.00
C 111.89 112.27 109.44 113.84 109.00 114.00 Z"/>
</g>
<g fill="None" fill-opacity="0.0" stroke="#BE9056" stroke-opacity="1.00" stroke-width="0.3"><path d="
M 86.00 113.00 
C 84.34 115.37 76.06 116.65 76.00 113.00
C 73.22 116.63 84.74 117.83 86.00 113.00 Z"/>
</g>
<g fill="None" fill-opacity="0.0" stroke="#A27952" stroke-opacity="1.00" stroke-width="0.3"><path d="
M 23.00 118.00 
C 25.60 119.78 28.74 116.80 30.00 115.00
C 28.02 116.70 25.73 117.49 23.00 117.00
C 22.86 116.02 23.17 114.97 23.00 114.00
C 22.53 115.61 21.32 116.22 23.00 118.00 Z"/>
</g>
<g fill="None" fill-opacity="0.0" stroke="#A27956" stroke-opacity="1.00" stroke-width="0.3"><path d="
M 48.00 117.00 
C 46.00 117.00 44.00 117.00 42.00 117.00
C 41.86 116.03 42.18 114.97 42.00 114.00
C 40.24 114.50 41.28 116.72 41.00 118.00
C 43.37 117.73 46.32 118.74 48.00 117.00 Z"/>
</g>
<g fill="None" fill-opacity="0.0" stroke="#A07754" stroke-opacity="1.00" stroke-width="0.3"><path d="
M 56.00 116.00 
C 57.55 119.31 68.30 119.19 66.00 115.00
C 66.05 118.05 57.65 117.92 56.00 116.00 Z"/>
</g>
<g fill="None" fill-opacity="0.0" stroke="#9F753E" stroke-opacity="1.00" stroke-width="0.3"><path d="
M 114.00 117.00 
C 110.41 117.93 97.29 118.56 94.00 117.00
C 96.85 119.85 110.66 118.39 114.00 117.00 Z"/>
</g>
<g fill="None" fill-opacity="0.0" stroke="#825E77" stroke-opacity="1.00" stroke-width="0.3"><path d="
M 26.00 120.00 
C 23.60 117.60 17.57 121.64 20.33 124.67 C 23.09 127.70 28.16 122.16 26.00 120.00 Z"/>
</g>
<g fill="None" fill-opacity="0.0" stroke="#8A677E" stroke-opacity="1.00" stroke-width="0.3"><path d="
M 41.00 125.00 
C 42.26 115.11 31.72 124.78 41.00 125.00 Z"/>
</g>
<g fill="None" fill-opacity="0.0" stroke="#856282" stroke-opacity="1.00" stroke-width="0.3"><path d="
M 85.00 121.00 
C 82.58 123.28 82.15 119.92 80.00 120.00
C 78.22 124.95 85.19 126.08 85.00 121.00 Z"/>
</g>
<g fill="None" fill-opacity="0.0" stroke="#84647D" stroke-opacity="1.00" stroke-width="0.3"><path d="
M 101.00 120.00 
C 90.67 118.65 100.28 130.89 101.00 120.00 Z"/>
</g>
<g fill="None" fill-opacity="0.0" stroke="#916980" stroke-opacity="1.00" stroke-width="0.3"><path d="
M 118.00 122.00 
C 117.98 120.67 117.44 120.82 117.00 120.00
C 114.34 119.38 111.10 120.77 112.00 124.00
C 113.76 122.05 117.37 125.33 118.00 122.00 Z"/>
</g>
<g fill="None" fill-opacity="0.0" stroke="#8D6D91" stroke-opacity="1.00" stroke-width="0.3"><path d="
M 133.00 120.00 
C 131.40 122.07 129.10 119.04 128.00 121.00
C 129.94 123.79 132.52 124.19 133.00 120.00 Z"/>
</g>
<g fill="None" fill-opacity="0.0" stroke="#704A66" stroke-opacity="1.00" stroke-width="0.3"><path d="
M 61.00 144.00 
C 60.76 142.02 62.87 145.46 63.00 146.00
C 63.00 146.00 63.50 146.00 64.00 146.00
C 64.18 145.03 63.86 143.97 64.00 143.00
C 66.03 142.36 66.06 144.69 66.00 146.00
C 66.00 146.00 66.50 146.00 67.00 146.00
C 67.13 145.02 66.89 143.99 67.00 143.00
C 69.84 141.48 71.39 146.45 68.00 146.00
C 70.73 146.41 81.62 148.86 78.00 142.00
C 75.26 143.06 59.57 141.23 61.00 144.00
M 74.00 143.00 
C 74.56 148.26 68.54 143.61 74.00 143.00
M 78.00 143.00 
C 78.81 143.81 77.69 146.77 76.29 145.63 C 74.90 144.50 77.10 142.10 78.00 143.00 Z"/>
</g>
<g fill="None" fill-opacity="0.0" stroke="#674870" stroke-opacity="1.00" stroke-width="0.3"><path d="
M 86.00 143.00 
C 88.56 142.12 88.65 146.82 86.00 146.00
C 90.17 145.28 103.34 151.73 100.00 142.00
C 97.11 144.03 87.62 140.11 86.00 143.00
M 92.00 143.00 
C 92.81 143.81 91.69 146.77 90.29 145.63 C 88.90 144.50 91.11 142.10 92.00 143.00
M 96.00 143.00 
C 96.81 143.81 95.69 146.77 94.29 145.63 C 92.90 144.50 95.11 142.10 96.00 143.00
M 100.00 143.00 
C 100.81 143.81 99.69 146.77 98.29 145.63 C 96.90 144.50 99.11 142.10 100.00 143.00 Z"/>
</g>
<g fill="None" fill-opacity="0.0" stroke="#9F849B" stroke-opacity="1.00" stroke-width="0.3"><path d="
M 61.00 144.00 
C 61.17 145.43 61.32 146.19 63.00 146.00
C 62.87 145.46 60.76 142.02 61.00 144.00 Z"/>
</g>
<g fill="None" fill-opacity="0.0" stroke="#98717A" stroke-opacity="1.00" stroke-width="0.3"><path d="
M 64.00 146.00 
C 64.50 146.00 65.50 146.00 66.00 146.00
C 66.06 144.69 66.03 142.36 64.00 143.00
C 63.86 143.97 64.18 145.03 64.00 146.00 Z"/>
</g>
<g fill="None" fill-opacity="0.0" stroke="#B18B81" stroke-opacity="1.00" stroke-width="0.3"><path d="
M 67.00 146.00 
C 67.00 146.00 67.54 145.87 68.00 146.00
C 71.39 146.45 69.84 141.48 67.00 143.00
C 66.89 143.99 67.13 145.02 67.00 146.00 Z"/>
</g>
<g fill="None" fill-opacity="0.0" stroke="#A47A8B" stroke-opacity="1.00" stroke-width="0.3"><path d="
M 74.00 143.00 
C 68.54 143.61 74.56 148.26 74.00 143.00 Z"/>
</g>
<g fill="None" fill-opacity="0.0" stroke="#A8817F" stroke-opacity="1.00" stroke-width="0.3"><path d="
M 78.00 143.00 
C 77.10 142.10 74.90 144.50 76.29 145.63 C 77.69 146.77 78.81 143.81 78.00 143.00 Z"/>
</g>
<g fill="None" fill-opacity="0.0" stroke="#A28392" stroke-opacity="1.00" stroke-width="0.3"><path d="
M 86.00 146.00 
C 88.65 146.82 88.56 142.12 86.00 143.00
C 86.36 142.36 86.45 146.80 86.00 146.00 Z"/>
</g>
<g fill="None" fill-opacity="0.0" stroke="#A38784" stroke-opacity="1.00" stroke-width="0.3"><path d="
M 92.00 143.00 
C 91.11 142.10 88.90 144.50 90.29 145.63 C 91.69 146.77 92.81 143.81 92.00 143.00 Z"/>
</g>
<g fill="None" fill-opacity="0.0" stroke="#937582" stroke-opacity="1.00" stroke-width="0.3"><path d="
M 96.00 143.00 
C 95.11 142.10 92.90 144.50 94.29 145.63 C 95.69 146.77 96.81 143.81 96.00 143.00 Z"/>
</g>
<g fill="None" fill-opacity="0.0" stroke="#9A8293" stroke-opacity="1.00" stroke-width="0.3"><path d="
M 100.00 143.00 
C 99.11 142.10 96.90 144.50 98.29 145.63 C 99.69 146.77 100.81 143.81 100.00 143.00 Z"/>
</g>
<g fill="#593A84" fill-opacity="1.00" stroke="None">
<path d="
M 0.00 160.00 
L 160.00 160.00
L 160.00 0.00
L 0.00 0.00
L 0.00 160.00
M 71.00 15.00 
C 66.37 13.18 68.94 16.80 70.00 19.00
C 66.15 16.86 67.31 20.23 70.00 21.00
C 66.10 21.15 62.94 22.42 62.00 18.00
C 61.38 22.11 62.37 24.12 64.00 26.00
C 58.08 27.61 60.45 20.40 60.00 17.00
C 64.03 17.24 67.29 18.61 66.00 13.00
C 68.05 11.94 70.18 12.57 71.00 15.00
M 103.00 18.00 
C 105.30 18.80 103.75 22.26 106.00 17.00
C 108.67 19.34 103.09 26.37 109.00 24.00
C 108.34 26.47 105.62 26.21 104.00 25.00
C 103.45 24.83 100.92 24.97 102.00 22.00
C 96.18 20.08 92.98 23.50 86.92 21.93 C 80.87 20.36 88.15 15.03 93.00 17.00
C 91.76 13.22 94.98 12.46 98.00 13.00
C 92.17 16.33 98.19 17.64 103.00 18.00
M 56.00 17.00 
C 57.81 18.81 54.43 23.84 51.78 21.22 C 49.12 18.60 54.22 15.22 56.00 17.00
M 79.00 20.00 
C 79.38 19.79 80.06 18.72 81.00 17.00
C 82.41 18.51 82.00 20.45 81.00 22.00
C 81.53 23.65 84.41 23.74 84.00 26.00
C 82.72 25.72 80.50 26.76 80.00 25.00
C 77.48 24.28 78.88 25.79 78.00 22.00
C 75.22 21.89 73.31 21.76 71.00 21.00
C 75.33 18.94 71.75 20.18 71.00 17.00
C 73.49 18.46 78.93 14.97 79.00 20.00
M 59.00 18.00 
C 59.81 18.81 58.69 21.77 57.29 20.63 C 55.90 19.50 58.10 17.10 59.00 18.00
M 69.00 30.00 
C 71.29 31.47 70.77 32.59 70.00 35.00
C 71.49 33.33 73.57 32.54 75.00 31.00
C 75.24 30.74 75.98 29.97 76.00 30.00
C 77.59 28.82 79.02 29.60 79.00 32.00
C 78.06 31.43 77.18 30.85 76.00 31.00
C 76.33 33.68 78.63 35.20 81.00 34.00
C 81.18 33.32 83.35 31.47 84.00 31.00
C 87.24 28.65 85.70 31.16 88.00 31.00
C 89.84 30.87 94.12 26.52 94.00 32.00
C 92.72 32.53 92.14 31.03 91.00 31.00
C 91.02 31.00 90.75 32.75 91.00 33.00
C 92.37 34.35 96.18 33.83 98.00 34.00
C 99.83 33.96 101.96 31.73 104.00 34.00
C 105.78 35.84 104.47 36.91 104.00 39.00
C 104.15 39.58 105.60 40.51 106.00 41.00
C 105.40 38.08 106.27 35.38 107.00 35.00
C 107.48 33.88 109.58 33.79 110.00 35.00
C 110.18 35.50 110.16 37.49 110.00 38.00
C 109.78 38.71 107.25 38.49 107.00 38.00
C 107.00 38.44 107.28 41.83 107.00 42.00
C 106.80 43.66 103.54 43.19 103.00 42.00
C 102.63 41.19 102.93 38.90 103.00 38.00
C 102.70 38.24 101.46 38.13 101.00 38.00
C 99.55 37.58 100.33 36.05 100.00 35.00
C 99.61 35.21 99.00 35.00 99.00 35.00
C 99.05 36.00 98.96 37.00 99.00 38.00
C 94.94 36.99 91.04 40.36 88.00 37.00
C 87.96 39.04 86.06 40.73 89.00 42.00
C 81.29 45.13 89.09 35.22 85.00 34.00
C 85.00 35.00 85.00 36.00 85.00 37.00
C 82.63 38.75 83.62 38.56 81.00 38.00
C 78.03 37.36 78.70 36.30 76.00 35.00
C 76.86 37.48 73.91 39.58 72.00 38.00
C 71.47 37.74 70.64 36.89 70.00 37.00
C 69.26 37.21 64.58 39.52 65.08 35.92 C 65.59 32.32 64.21 31.80 67.00 30.00
C 68.42 29.09 67.65 29.13 69.00 30.00
M 60.00 34.00 
C 60.08 33.82 61.00 34.00 61.00 34.00
C 62.93 32.73 63.42 33.26 63.97 36.03 C 64.53 38.79 61.57 37.63 61.00 38.00
C 60.82 38.59 59.37 40.02 59.00 41.00
C 59.99 40.88 61.01 41.09 62.00 41.00
C 61.70 42.72 58.73 44.01 58.00 42.00
C 57.38 40.75 55.65 36.50 56.00 35.00
C 54.62 35.30 55.21 37.02 55.00 38.00
C 52.83 36.85 45.53 40.56 48.00 37.00
C 49.26 36.72 45.87 33.73 46.10 36.12 C 46.32 38.51 44.58 38.69 43.00 39.00
C 43.58 34.92 45.44 32.96 50.00 34.00
C 52.28 33.67 57.19 33.94 58.00 30.00
C 59.83 30.49 60.18 32.35 60.00 34.00
M 121.00 38.00 
C 119.79 35.53 119.58 32.13 117.00 30.00
C 120.61 30.15 122.75 35.24 121.00 38.00
M 43.00 34.00 
C 41.65 45.03 33.34 30.91 43.00 34.00
M 115.00 37.00 
C 111.42 37.58 113.58 41.63 115.00 43.00
C 109.08 44.61 111.45 37.40 111.00 34.00
C 112.89 35.80 115.85 32.84 115.00 37.00
M 118.00 34.00 
C 119.56 40.97 112.73 35.19 118.00 34.00
M 108.00 58.00 
C 109.40 60.28 111.39 60.22 114.00 60.00
C 115.24 60.56 116.25 61.49 116.00 63.00
C 114.67 63.00 113.33 63.00 112.00 63.00
C 111.88 63.03 112.00 64.50 112.00 65.00
C 112.00 65.50 112.22 66.63 112.00 67.00
C 111.09 68.50 108.96 69.38 110.00 72.00
C 104.92 70.47 107.90 74.77 105.00 76.00
C 104.28 76.66 101.86 75.49 101.00 76.00
C 100.72 77.28 101.76 79.50 100.00 80.00
C 98.35 81.61 98.81 82.62 96.00 81.00
C 94.72 80.27 94.69 78.50 93.00 78.00
C 98.92 81.61 84.52 92.28 85.00 83.00
C 82.52 83.92 75.62 83.52 73.00 83.00
C 72.82 82.96 69.96 81.96 70.00 82.00
C 69.15 82.17 59.12 91.23 61.00 82.00
C 52.09 85.18 59.04 75.87 61.00 73.00
C 61.26 72.28 61.71 71.70 62.00 71.00
C 61.56 62.84 71.42 54.73 81.00 57.00
C 80.51 55.07 81.74 52.63 84.00 53.00
C 90.60 52.40 97.40 53.65 104.00 53.00 C 110.60 52.35 106.81 56.07 108.00 58.00
M 71.00 94.00 
C 71.50 94.00 72.00 94.00 72.00 94.00
C 75.02 92.93 78.64 92.70 82.00 93.00
C 87.49 94.58 77.02 109.22 78.00 113.00
C 87.00 114.41 89.76 100.66 89.00 94.00
C 91.75 92.65 96.68 92.15 99.00 94.00
C 101.23 94.35 101.56 94.41 104.00 94.00
C 107.94 93.34 114.50 92.35 119.00 93.00 C 123.50 93.65 132.14 92.05 136.00 93.00 C 139.86 93.95 150.69 90.66 152.00 94.00
C 152.86 94.82 151.33 95.72 151.00 96.00
C 148.98 97.75 145.71 96.74 143.00 97.00
C 143.09 100.08 140.58 102.77 139.00 105.00
C 138.92 105.49 139.00 106.00 139.00 106.00
C 137.91 110.66 138.45 116.41 132.92 118.92 C 127.39 121.42 123.18 115.14 127.77 110.77 C 132.36 106.40 128.78 101.31 133.00 97.00
C 128.41 95.27 121.34 99.31 117.00 97.00 C 112.66 94.69 104.83 100.86 109.26 103.74 C 113.68 106.63 120.61 101.56 120.99 109.01 C 121.37 116.46 116.81 114.40 117.00 120.00
C 117.44 120.82 117.98 120.67 118.00 122.00
C 118.11 128.21 106.86 123.96 112.00 119.00
C 102.04 117.95 90.36 119.92 81.00 119.00 C 71.64 118.08 57.86 122.79 55.00 114.00
C 54.73 112.91 54.55 110.98 54.00 110.00
C 51.44 107.00 49.51 114.64 49.00 116.00
C 49.42 120.08 40.72 120.44 40.08 116.92 C 39.45 113.39 42.46 109.62 44.00 107.00
C 44.75 105.72 45.48 104.37 46.00 103.00
C 46.44 101.85 46.91 100.30 47.00 99.00
C 48.27 99.18 40.87 94.65 38.00 97.00
C 33.47 103.82 34.28 122.59 23.00 118.00
C 21.32 116.22 22.53 115.61 23.00 114.00
C 24.37 109.35 27.20 104.77 28.00 100.00
C 27.82 99.03 28.14 97.97 28.00 97.00
C 12.64 94.15 32.95 91.84 41.00 93.00 C 49.05 94.16 63.32 91.30 71.00 94.00
M 26.00 120.00 
C 28.16 122.16 23.09 127.70 20.33 124.67 C 17.57 121.64 23.60 117.60 26.00 120.00
M 41.00 125.00 
C 31.72 124.78 42.26 115.11 41.00 125.00
M 85.00 121.00 
C 85.19 126.08 78.22 124.95 80.00 120.00
C 82.15 119.92 82.58 123.28 85.00 121.00
M 101.00 120.00 
C 100.28 130.89 90.67 118.65 101.00 120.00
M 133.00 120.00 
C 132.52 124.19 129.94 123.79 128.00 121.00
C 129.10 119.04 131.40 122.07 133.00 120.00
M 68.00 146.00 
C 67.54 145.87 67.00 146.00 67.00 146.00
C 66.50 146.00 66.00 146.00 66.00 146.00
C 65.50 146.00 64.50 146.00 64.00 146.00
C 63.50 146.00 63.00 146.00 63.00 146.00
C 61.32 146.19 61.17 145.43 61.00 144.00
C 59.57 141.23 75.26 143.06 78.00 142.00
C 81.62 148.86 70.73 146.41 68.00 146.00
M 86.00 146.00 
C 86.45 146.80 86.36 142.36 86.00 143.00
C 87.62 140.11 97.11 144.03 100.00 142.00
C 103.34 151.73 90.17 145.28 86.00 146.00 Z"/>
</g>
<g fill="#C6B1D8" fill-opacity="1.00" stroke="None">
<path d="
M 71.00 15.00 
C 70.18 12.57 68.05 11.94 66.00 13.00
C 67.29 18.61 64.03 17.24 60.00 17.00
C 60.45 20.40 58.08 27.61 64.00 26.00
C 62.37 24.12 61.38 22.11 62.00 18.00
C 62.94 22.42 66.10 21.15 70.00 21.00
C 67.31 20.23 66.15 16.86 70.00 19.00
C 68.94 16.80 66.37 13.18 71.00 15.00 Z"/>
</g>
<g fill="#A993BC" fill-opacity="1.00" stroke="None">
<path d="
M 104.00 25.00 
C 102.73 24.01 101.30 19.05 103.00 18.00
C 98.19 17.64 92.17 16.33 98.00 13.00
C 94.98 12.46 91.76 13.22 93.00 17.00
C 88.15 15.03 80.87 20.36 86.92 21.93 C 92.98 23.50 96.18 20.08 102.00 22.00
C 100.92 24.97 103.45 24.83 104.00 25.00
M 101.00 18.00 
C 102.10 22.96 95.52 18.75 101.00 18.00 Z"/>
</g>
<g fill="#B7A4C9" fill-opacity="1.00" stroke="None">
<path d="
M 56.00 17.00 
C 54.22 15.22 49.12 18.60 51.78 21.22 C 54.43 23.84 57.81 18.81 56.00 17.00 Z"/>
</g>
<g fill="#9982AE" fill-opacity="1.00" stroke="None">
<path d="
M 78.00 22.00 
C 77.70 20.71 76.41 19.57 77.00 18.00
C 78.26 18.08 77.56 20.06 79.00 20.00
C 78.93 14.97 73.49 18.46 71.00 17.00
C 71.75 20.18 75.33 18.94 71.00 21.00
C 73.31 21.76 75.22 21.89 78.00 22.00 Z"/>
</g>
<g fill="#E4CEF3" fill-opacity="1.00" stroke="None">
<path d="
M 79.00 20.00 
C 77.56 20.06 78.26 18.08 77.00 18.00
C 76.41 19.57 77.70 20.71 78.00 22.00
C 78.88 25.79 77.48 24.28 80.00 25.00
C 81.11 23.96 80.67 23.51 81.00 22.00
C 82.00 20.45 82.41 18.51 81.00 17.00
C 80.06 18.72 79.38 19.79 79.00 20.00 Z"/>
</g>
<g fill="#DAC4ED" fill-opacity="1.00" stroke="None">
<path d="
M 103.00 18.00 
C 101.30 19.05 102.73 24.01 104.00 25.00
C 105.62 26.21 108.34 26.47 109.00 24.00
C 103.09 26.37 108.67 19.34 106.00 17.00
C 103.75 22.26 105.30 18.80 103.00 18.00 Z"/>
</g>
<g fill="#EDDCF5" fill-opacity="1.00" stroke="None">
<path d="
M 59.00 18.00 
C 58.10 17.10 55.90 19.50 57.29 20.63 C 58.69 21.77 59.81 18.81 59.00 18.00 Z"/>
</g>
<g fill="#5D4674" fill-opacity="1.00" stroke="None">
<path d="
M 101.00 18.00 
C 95.52 18.75 102.10 22.96 101.00 18.00 Z"/>
</g>
<g fill="#977EB4" fill-opacity="1.00" stroke="None">
<path d="
M 80.00 25.00 
C 80.50 26.76 82.72 25.72 84.00 26.00
C 84.41 23.74 81.53 23.65 81.00 22.00
C 80.67 23.51 81.11 23.96 80.00 25.00 Z"/>
</g>
<g fill="#76618D" fill-opacity="1.00" stroke="None">
<path d="
M 67.00 30.00 
C 66.61 30.82 67.31 32.15 67.00 33.00
C 69.03 33.64 69.06 31.31 69.00 30.00
C 67.65 29.13 68.42 29.09 67.00 30.00 Z"/>
</g>
<g fill="#A58CC7" fill-opacity="1.00" stroke="None">
<path d="
M 76.00 30.00 
C 76.23 30.36 76.00 31.00 76.00 31.00
C 77.18 30.85 78.06 31.43 79.00 32.00
C 79.02 29.60 77.59 28.82 76.00 30.00 Z"/>
</g>
<g fill="#C0ACD6" fill-opacity="1.00" stroke="None">
<path d="
M 84.00 31.00 
C 82.26 33.74 82.51 36.96 85.00 37.00
C 85.00 36.00 85.00 35.00 85.00 34.00
C 89.09 35.22 81.29 45.13 89.00 42.00
C 86.06 40.73 87.96 39.04 88.00 37.00
C 88.03 35.37 88.54 32.52 88.00 31.00
C 85.70 31.16 87.24 28.65 84.00 31.00 Z"/>
</g>
<g fill="#9987AF" fill-opacity="1.00" stroke="None">
<path d="
M 88.00 31.00 
C 88.54 32.52 88.03 35.37 88.00 37.00
C 91.04 40.36 94.94 36.99 99.00 38.00
C 98.96 37.00 99.05 36.00 99.00 35.00
C 98.74 34.88 98.35 34.03 98.00 34.00
C 96.18 33.83 92.37 34.35 91.00 33.00
C 91.62 33.11 89.72 35.42 89.23 32.76 C 88.74 30.11 90.37 30.28 91.00 31.00
C 92.14 31.03 92.72 32.53 94.00 32.00
C 94.12 26.52 89.84 30.87 88.00 31.00 Z"/>
</g>
<g fill="#85709D" fill-opacity="1.00" stroke="None">
<path d="
M 50.00 34.00 
C 51.45 32.88 49.76 36.61 48.00 37.00
C 45.53 40.56 52.83 36.85 55.00 38.00
C 55.21 37.02 54.62 35.30 56.00 35.00
C 57.53 34.67 58.24 35.46 58.00 38.00
C 59.98 37.53 57.89 34.40 60.00 34.00
C 60.18 32.35 59.83 30.49 58.00 30.00
C 57.19 33.94 52.28 33.67 50.00 34.00 Z"/>
</g>
<g fill="#C6B6D6" fill-opacity="1.00" stroke="None">
<path d="
M 70.00 37.00 
C 70.08 36.99 69.85 35.45 70.00 35.00
C 70.77 32.59 71.29 31.47 69.00 30.00
C 69.06 31.31 69.03 33.64 67.00 33.00
C 67.31 32.15 66.61 30.82 67.00 30.00
C 64.21 31.80 65.59 32.32 65.08 35.92 C 64.58 39.52 69.26 37.21 70.00 37.00 Z"/>
</g>
<g fill="#C9B9DA" fill-opacity="1.00" stroke="None">
<path d="
M 75.00 31.00 
C 74.59 33.05 74.19 34.87 74.00 37.00
C 73.32 33.28 69.85 34.73 72.00 38.00
C 73.91 39.58 76.86 37.48 76.00 35.00
C 78.70 36.30 78.03 37.36 81.00 38.00
C 82.85 36.26 80.75 34.95 81.00 34.00
C 78.63 35.20 76.33 33.68 76.00 31.00
C 76.00 31.00 76.23 30.36 76.00 30.00
C 75.98 29.97 75.24 30.74 75.00 31.00 Z"/>
</g>
<g fill="#DDCAF1" fill-opacity="1.00" stroke="None">
<path d="
M 91.00 33.00 
C 90.75 32.75 91.02 31.00 91.00 31.00
C 90.37 30.28 88.74 30.11 89.23 32.76 C 89.72 35.42 91.62 33.11 91.00 33.00 Z"/>
</g>
<g fill="#DFC9EF" fill-opacity="1.00" stroke="None">
<path d="
M 121.00 38.00 
C 122.75 35.24 120.61 30.15 117.00 30.00
C 119.58 32.13 119.79 35.53 121.00 38.00 Z"/>
</g>
<g fill="#75648D" fill-opacity="1.00" stroke="None">
<path d="
M 70.00 35.00 
C 69.85 35.45 70.08 36.99 70.00 37.00
C 70.64 36.89 71.47 37.74 72.00 38.00
C 69.85 34.73 73.32 33.28 74.00 37.00
C 74.19 34.87 74.59 33.05 75.00 31.00
C 73.57 32.54 71.49 33.33 70.00 35.00 Z"/>
</g>
<g fill="#73608B" fill-opacity="1.00" stroke="None">
<path d="
M 81.00 34.00 
C 80.75 34.95 82.85 36.26 81.00 38.00
C 83.62 38.56 82.63 38.75 85.00 37.00
C 82.51 36.96 82.26 33.74 84.00 31.00
C 83.35 31.47 81.18 33.32 81.00 34.00 Z"/>
</g>
<g fill="#B29BC4" fill-opacity="1.00" stroke="None">
<path d="
M 43.00 34.00 
C 33.34 30.91 41.65 45.03 43.00 34.00 Z"/>
</g>
<g fill="#8D79A0" fill-opacity="1.00" stroke="None">
<path d="
M 61.00 34.00 
C 61.29 34.49 61.17 37.44 61.00 38.00
C 61.57 37.63 64.53 38.79 63.97 36.03 C 63.42 33.26 62.93 32.73 61.00 34.00 Z"/>
</g>
<g fill="#6D5985" fill-opacity="1.00" stroke="None">
<path d="
M 98.00 34.00 
C 98.35 34.03 98.74 34.88 99.00 35.00
C 99.00 35.00 99.61 35.21 100.00 35.00
C 103.14 33.34 101.18 36.08 101.00 38.00
C 101.46 38.13 102.70 38.24 103.00 38.00
C 103.06 37.23 104.06 34.07 104.00 34.00
C 101.96 31.73 99.83 33.96 98.00 34.00 Z"/>
</g>
<g fill="#C1ABD3" fill-opacity="1.00" stroke="None">
<path d="
M 48.00 37.00 
C 49.76 36.61 51.45 32.88 50.00 34.00
C 45.44 32.96 43.58 34.92 43.00 39.00
C 44.58 38.69 46.32 38.51 46.10 36.12 C 45.87 33.73 49.26 36.72 48.00 37.00 Z"/>
</g>
<g fill="#D2BEE1" fill-opacity="1.00" stroke="None">
<path d="
M 56.00 35.00 
C 55.65 36.50 57.38 40.75 58.00 42.00
C 58.06 42.07 58.87 41.35 59.00 41.00
C 59.37 40.02 60.82 38.59 61.00 38.00
C 61.17 37.44 61.29 34.49 61.00 34.00
C 61.00 34.00 60.08 33.82 60.00 34.00
C 57.89 34.40 59.98 37.53 58.00 38.00
C 58.24 35.46 57.53 34.67 56.00 35.00 Z"/>
</g>
<g fill="#DAC9E9" fill-opacity="1.00" stroke="None">
<path d="
M 100.00 35.00 
C 100.33 36.05 99.55 37.58 101.00 38.00
C 101.18 36.08 103.14 33.34 100.00 35.00 Z"/>
</g>
<g fill="#DFCEE8" fill-opacity="1.00" stroke="None">
<path d="
M 103.00 38.00 
C 102.93 38.90 102.63 41.19 103.00 42.00
C 104.38 41.74 103.79 39.95 104.00 39.00
C 104.47 36.91 105.78 35.84 104.00 34.00
C 104.06 34.07 103.06 37.23 103.00 38.00 Z"/>
</g>
<g fill="#FDEEFF" fill-opacity="1.00" stroke="None">
<path d="
M 106.00 41.00 
C 106.23 41.28 106.82 42.10 107.00 42.00
C 107.28 41.83 107.00 38.44 107.00 38.00
C 107.00 37.27 106.72 35.66 107.00 35.00
C 106.27 35.38 105.40 38.08 106.00 41.00 Z"/>
</g>
<g fill="#9D8BAA" fill-opacity="1.00" stroke="None">
<path d="
M 107.00 35.00 
C 106.72 35.66 107.00 37.27 107.00 38.00
C 107.25 38.49 109.78 38.71 110.00 38.00
C 107.99 37.70 107.27 34.50 110.00 35.00
C 109.58 33.79 107.48 33.88 107.00 35.00 Z"/>
</g>
<g fill="#D7C0EC" fill-opacity="1.00" stroke="None">
<path d="
M 115.00 37.00 
C 115.85 32.84 112.89 35.80 111.00 34.00
C 111.45 37.40 109.08 44.61 115.00 43.00
C 113.58 41.63 111.42 37.58 115.00 37.00 Z"/>
</g>
<g fill="#CCB7DB" fill-opacity="1.00" stroke="None">
<path d="
M 118.00 34.00 
C 112.73 35.19 119.56 40.97 118.00 34.00 Z"/>
</g>
<g fill="#F3E3F6" fill-opacity="1.00" stroke="None">
<path d="
M 110.00 38.00 
C 110.16 37.49 110.18 35.50 110.00 35.00
C 107.27 34.50 107.99 37.70 110.00 38.00 Z"/>
</g>
<g fill="#9178B5" fill-opacity="1.00" stroke="None">
<path d="
M 103.00 42.00 
C 103.54 43.19 106.80 43.66 107.00 42.00
C 106.82 42.10 106.23 41.28 106.00 41.00
C 105.60 40.51 104.15 39.58 104.00 39.00
C 103.79 39.95 104.38 41.74 103.00 42.00 Z"/>
</g>
<g fill="#A084C9" fill-opacity="1.00" stroke="None">
<path d="
M 58.00 42.00 
C 58.73 44.01 61.70 42.72 62.00 41.00
C 61.01 41.09 59.99 40.88 59.00 41.00
C 58.87 41.35 58.06 42.07 58.00 42.00 Z"/>
</g>
<g fill="#613958" fill-opacity="1.00" stroke="None">
<path d="
M 62.00 71.00 
C 62.48 69.84 62.46 68.16 63.00 67.00
C 64.20 64.43 68.48 60.16 71.00 59.00
C 74.40 57.43 78.24 58.12 82.00 58.00
C 81.70 56.43 82.25 54.39 84.00 54.00
C 84.25 53.71 84.00 53.00 84.00 53.00
C 81.74 52.63 80.51 55.07 81.00 57.00
C 71.42 54.73 61.56 62.84 62.00 71.00 Z"/>
</g>
<g fill="#775052" fill-opacity="1.00" stroke="None">
<path d="
M 84.00 54.00 
C 91.94 54.72 100.05 53.46 108.00 54.00
C 108.00 55.33 108.00 56.67 108.00 58.00
C 106.81 56.07 110.60 52.35 104.00 53.00 C 97.40 53.65 90.60 52.40 84.00 53.00
C 84.00 53.00 84.25 53.71 84.00 54.00 Z"/>
</g>
<g fill="#F3BA30" fill-opacity="1.00" stroke="None">
<path d="
M 71.00 59.00 
C 69.50 59.82 63.82 65.57 63.00 67.00
C 62.46 68.16 62.48 69.84 62.00 71.00
C 61.71 71.70 61.26 72.28 61.00 73.00
C 59.84 76.21 57.40 78.60 57.00 82.00
C 62.11 81.91 67.61 70.90 72.00 79.00
C 72.11 79.48 71.88 80.53 72.00 81.00
C 72.09 81.35 72.88 81.74 73.00 82.00
C 76.59 82.52 80.39 81.61 84.00 82.00
C 84.56 76.45 96.58 72.89 96.00 81.00
C 98.81 82.62 98.35 81.61 100.00 80.00
C 101.27 78.30 99.85 72.74 105.00 75.00
C 103.83 74.21 100.15 72.82 103.00 71.00
C 103.04 71.04 103.96 69.10 104.00 69.00
C 104.45 67.87 104.41 67.92 105.00 67.00
C 105.44 66.33 105.71 65.73 106.00 65.00
C 106.53 63.66 105.89 63.97 107.00 63.00
C 109.01 61.25 112.14 62.92 114.00 61.00
C 111.74 61.41 109.28 60.69 107.00 61.00
C 107.11 60.00 106.53 58.27 108.00 58.00
C 108.00 56.67 108.00 55.33 108.00 54.00
C 100.05 53.46 91.94 54.72 84.00 54.00
C 82.25 54.39 81.70 56.43 82.00 58.00
C 78.24 58.12 74.40 57.43 71.00 59.00
M 92.00 66.00 
C 91.82 66.09 91.73 69.18 90.00 68.00
C 89.95 66.24 91.53 64.93 91.00 63.00
C 90.98 63.54 87.48 60.61 91.04 61.03 C 94.59 61.46 93.83 60.65 97.00 61.00
C 97.11 63.80 94.06 65.02 92.00 66.00
M 77.00 64.00 
C 77.44 68.61 70.58 66.55 68.00 67.00
C 68.41 66.17 68.97 65.13 70.00 65.00
C 71.35 63.23 76.59 59.71 77.00 64.00 Z"/>
</g>
<g fill="#865D30" fill-opacity="1.00" stroke="None">
<path d="
M 114.00 61.00 
C 114.25 60.74 114.00 60.00 114.00 60.00
C 111.39 60.22 109.40 60.28 108.00 58.00
C 106.53 58.27 107.11 60.00 107.00 61.00
C 109.28 60.69 111.74 61.41 114.00 61.00 Z"/>
</g>
<g fill="#81554B" fill-opacity="1.00" stroke="None">
<path d="
M 63.00 67.00 
C 63.82 65.57 69.50 59.82 71.00 59.00
C 68.48 60.16 64.20 64.43 63.00 67.00 Z"/>
</g>
<g fill="#AF867D" fill-opacity="1.00" stroke="None">
<path d="
M 114.00 61.00 
C 112.14 62.92 109.01 61.25 107.00 63.00
C 108.17 62.42 110.68 63.13 112.00 63.00
C 113.33 63.00 114.67 63.00 116.00 63.00
C 116.25 61.49 115.24 60.56 114.00 60.00
C 114.00 60.00 114.25 60.74 114.00 61.00 Z"/>
</g>
<g fill="#B28230" fill-opacity="1.00" stroke="None">
<path d="
M 91.00 63.00 
C 90.44 62.46 93.71 61.54 94.00 62.00
C 94.55 63.82 92.25 64.47 92.00 66.00
C 94.06 65.02 97.11 63.80 97.00 61.00
C 93.83 60.65 94.59 61.46 91.04 61.03 C 87.48 60.61 90.98 63.54 91.00 63.00 Z"/>
</g>
<g fill="#613B4B" fill-opacity="1.00" stroke="None">
<path d="
M 70.00 65.00 
C 71.10 64.75 76.44 67.83 77.00 64.00
C 76.59 59.71 71.35 63.23 70.00 65.00
M 76.00 63.00 
C 73.72 67.57 70.30 62.25 76.00 63.00 Z"/>
</g>
<g fill="#754A36" fill-opacity="1.00" stroke="None">
<path d="
M 91.00 63.00 
C 91.53 64.93 89.95 66.24 90.00 68.00
C 91.73 69.18 91.82 66.09 92.00 66.00
C 92.25 64.47 94.55 63.82 94.00 62.00
C 93.71 61.54 90.44 62.46 91.00 63.00 Z"/>
</g>
<g fill="#5B3D78" fill-opacity="1.00" stroke="None">
<path d="
M 76.00 63.00 
C 70.30 62.25 73.72 67.57 76.00 63.00 Z"/>
</g>
<g fill="#6C4026" fill-opacity="1.00" stroke="None">
<path d="
M 106.00 65.00 
C 107.36 64.23 110.83 65.99 112.00 65.00
C 112.00 64.50 111.88 63.03 112.00 63.00
C 110.68 63.13 108.17 62.42 107.00 63.00
C 105.89 63.97 106.53 63.66 106.00 65.00 Z"/>
</g>
<g fill="#8E5F2B" fill-opacity="1.00" stroke="None">
<path d="
M 70.00 65.00 
C 68.97 65.13 68.41 66.17 68.00 67.00
C 70.58 66.55 77.44 68.61 77.00 64.00
C 76.44 67.83 71.10 64.75 70.00 65.00 Z"/>
</g>
<g fill="#D3A984" fill-opacity="1.00" stroke="None">
<path d="
M 105.00 67.00 
C 106.06 66.48 108.79 67.00 110.00 67.00
C 110.50 67.00 111.75 67.25 112.00 67.00
C 112.22 66.63 112.00 65.50 112.00 65.00
C 110.83 65.99 107.36 64.23 106.00 65.00
C 105.71 65.73 105.44 66.33 105.00 67.00 Z"/>
</g>
<g fill="#6D4027" fill-opacity="1.00" stroke="None">
<path d="
M 104.00 69.00 
C 105.01 68.46 106.89 69.34 108.00 69.00
C 108.40 68.88 109.69 67.09 110.00 67.00
C 108.79 67.00 106.06 66.48 105.00 67.00
C 104.41 67.92 104.45 67.87 104.00 69.00 Z"/>
</g>
<g fill="#704752" fill-opacity="1.00" stroke="None">
<path d="
M 108.00 69.00 
C 107.36 69.97 108.32 71.60 104.00 71.00
C 102.68 73.83 106.81 72.96 105.00 76.00
C 107.90 74.77 104.92 70.47 110.00 72.00
C 108.96 69.38 111.09 68.50 112.00 67.00
C 111.75 67.25 110.50 67.00 110.00 67.00
C 109.69 67.09 108.40 68.88 108.00 69.00 Z"/>
</g>
<g fill="#C59A87" fill-opacity="1.00" stroke="None">
<path d="
M 103.00 71.00 
C 103.26 70.75 104.00 71.00 104.00 71.00
C 108.32 71.60 107.36 69.97 108.00 69.00
C 106.89 69.34 105.01 68.46 104.00 69.00
C 103.96 69.10 103.04 71.04 103.00 71.00 Z"/>
</g>
<g fill="#9B6D4C" fill-opacity="1.00" stroke="None">
<path d="
M 100.00 80.00 
C 101.76 79.50 100.72 77.28 101.00 76.00
C 101.86 75.49 104.28 76.66 105.00 76.00
C 106.81 72.96 102.68 73.83 104.00 71.00
C 104.00 71.00 103.26 70.75 103.00 71.00
C 100.15 72.82 103.83 74.21 105.00 75.00
C 99.85 72.74 101.27 78.30 100.00 80.00 Z"/>
</g>
<g fill="#805A4E" fill-opacity="1.00" stroke="None">
<path d="
M 61.00 82.00 
C 62.90 81.32 64.35 78.48 66.00 78.00
C 67.54 77.37 70.75 76.46 72.00 79.00
C 67.61 70.90 62.11 81.91 57.00 82.00
C 57.40 78.60 59.84 76.21 61.00 73.00
C 59.04 75.87 52.09 85.18 61.00 82.00 Z"/>
</g>
<g fill="#7A564F" fill-opacity="1.00" stroke="None">
<path d="
M 73.00 82.00 
C 73.19 82.41 73.00 83.00 73.00 83.00
C 75.62 83.52 82.52 83.92 85.00 83.00
C 87.79 81.97 88.59 76.71 93.00 78.00
C 94.69 78.50 94.72 80.27 96.00 81.00
C 96.58 72.89 84.56 76.45 84.00 82.00
C 80.39 81.61 76.59 82.52 73.00 82.00 Z"/>
</g>
<g fill="#57313D" fill-opacity="1.00" stroke="None">
<path d="
M 66.00 78.00 
C 66.60 77.82 68.39 77.85 69.00 78.00
C 70.27 78.31 71.36 80.16 72.00 81.00
C 71.88 80.53 72.11 79.48 72.00 79.00
C 70.75 76.46 67.54 77.37 66.00 78.00 Z"/>
</g>
<g fill="#E7DFEF" fill-opacity="1.00" stroke="None">
<path d="
M 61.00 82.00 
C 59.12 91.23 69.15 82.17 70.00 82.00
C 69.46 81.42 70.24 78.55 69.00 78.00
C 68.39 77.85 66.60 77.82 66.00 78.00
C 64.35 78.48 62.90 81.32 61.00 82.00
M 67.00 81.00 
C 66.75 86.59 61.38 81.31 67.00 81.00 Z"/>
</g>
<g fill="#755473" fill-opacity="1.00" stroke="None">
<path d="
M 70.00 82.00 
C 69.96 81.96 72.82 82.96 73.00 83.00
C 73.00 83.00 73.19 82.41 73.00 82.00
C 72.88 81.74 72.09 81.35 72.00 81.00
C 71.36 80.16 70.27 78.31 69.00 78.00
C 70.24 78.55 69.46 81.42 70.00 82.00 Z"/>
</g>
<g fill="#E0D5E9" fill-opacity="1.00" stroke="None">
<path d="
M 85.00 83.00 
C 84.52 92.28 98.92 81.61 93.00 78.00
C 88.59 76.71 87.79 81.97 85.00 83.00
M 91.00 81.00 
C 90.75 86.59 85.38 81.31 91.00 81.00 Z"/>
</g>
<g fill="#595374" fill-opacity="1.00" stroke="None">
<path d="
M 67.00 81.00 
C 61.38 81.31 66.75 86.59 67.00 81.00 Z"/>
</g>
<g fill="#61526D" fill-opacity="1.00" stroke="None">
<path d="
M 91.00 81.00 
C 85.38 81.31 90.75 86.59 91.00 81.00 Z"/>
</g>
<g fill="#865D59" fill-opacity="1.00" stroke="None">
<path d="
M 28.00 100.00 
C 28.93 94.48 26.37 97.25 22.00 95.00
C 37.43 92.67 54.82 94.66 71.00 94.00
C 63.32 91.30 49.05 94.16 41.00 93.00 C 32.95 91.84 12.64 94.15 28.00 97.00
C 28.14 97.97 27.82 99.03 28.00 100.00 Z"/>
</g>
<g fill="#8B5D4F" fill-opacity="1.00" stroke="None">
<path d="
M 72.00 94.00 
C 72.24 94.22 72.02 96.63 72.00 97.00
C 72.11 97.24 73.55 95.42 74.00 98.00
C 74.34 96.74 74.86 95.83 74.00 94.00
C 76.67 94.00 79.33 94.00 82.00 94.00
C 81.77 93.65 82.00 93.00 82.00 93.00
C 78.64 92.70 75.02 92.93 72.00 94.00 Z"/>
</g>
<g fill="#684457" fill-opacity="1.00" stroke="None">
<path d="
M 82.00 94.00 
C 83.71 96.61 78.50 108.56 77.00 112.00
C 78.91 114.57 83.09 114.98 86.00 112.00
C 86.96 107.92 89.06 104.12 90.00 100.00
C 90.35 98.48 90.08 94.55 91.00 94.00
C 92.97 92.83 96.86 94.88 99.00 94.00
C 96.68 92.15 91.75 92.65 89.00 94.00
C 89.76 100.66 87.00 114.41 78.00 113.00
C 77.02 109.22 87.49 94.58 82.00 93.00
C 82.00 93.00 81.77 93.65 82.00 94.00 Z"/>
</g>
<g fill="#825B58" fill-opacity="1.00" stroke="None">
<path d="
M 104.00 94.00 
C 108.17 92.55 115.63 94.23 120.00 94.00 C 124.37 93.77 132.07 93.18 136.00 94.00 C 139.93 94.82 149.44 91.57 152.00 94.00
C 150.69 90.66 139.86 93.95 136.00 93.00 C 132.14 92.05 123.50 93.65 119.00 93.00 C 114.50 92.35 107.94 93.34 104.00 94.00 Z"/>
</g>
<g fill="#ECB740" fill-opacity="1.00" stroke="None">
<path d="
M 28.00 100.00 
C 27.20 104.77 24.37 109.35 23.00 114.00
C 23.17 114.97 22.86 116.02 23.00 117.00
C 25.73 117.49 28.02 116.70 30.00 115.00
C 33.69 109.73 33.84 101.73 37.00 96.00
C 46.33 96.00 55.67 96.00 65.00 96.00
C 65.60 99.04 62.39 100.93 63.00 104.00
C 60.55 107.10 55.41 106.47 52.00 105.00
C 52.95 104.13 52.54 102.32 54.00 102.00
C 54.14 101.63 54.18 99.35 54.00 99.00
C 52.00 99.00 50.00 99.00 48.00 99.00
C 47.85 100.41 47.35 102.34 46.00 103.00
C 45.48 104.37 44.75 105.72 44.00 107.00
C 43.25 108.92 42.35 111.90 42.00 114.00
C 42.18 114.97 41.86 116.03 42.00 117.00
C 44.00 117.00 46.00 117.00 48.00 117.00
C 48.25 116.74 48.00 116.00 48.00 116.00
C 48.74 112.87 51.31 105.21 54.00 110.00
C 54.55 110.98 54.73 112.91 55.00 114.00
C 55.23 114.48 55.70 115.35 56.00 116.00
C 57.65 117.92 66.05 118.05 66.00 115.00
C 65.42 113.94 58.53 112.40 61.00 108.00
C 67.95 109.53 71.58 102.70 72.00 97.00
C 72.02 96.63 72.24 94.22 72.00 94.00
C 72.00 94.00 71.50 94.00 71.00 94.00
C 54.82 94.66 37.43 92.67 22.00 95.00
C 26.37 97.25 28.93 94.48 28.00 100.00 Z"/>
</g>
<g fill="#EDB73E" fill-opacity="1.00" stroke="None">
<path d="
M 74.00 98.00 
C 72.78 102.52 71.46 107.89 69.00 112.00
C 68.71 113.62 69.22 115.37 69.00 117.00
C 75.67 117.00 82.33 117.00 89.00 117.00
C 93.19 115.04 94.58 108.91 96.00 105.00
C 97.28 101.48 98.79 97.85 99.00 94.00
C 96.86 94.88 92.97 92.83 91.00 94.00
C 93.23 96.69 90.73 98.18 90.00 100.00
C 89.06 104.12 86.96 107.92 86.00 112.00
C 85.89 112.47 86.00 113.00 86.00 113.00
C 84.74 117.83 73.22 116.63 76.00 113.00
C 76.22 112.71 76.89 112.26 77.00 112.00
C 78.50 108.56 83.71 96.61 82.00 94.00
C 79.33 94.00 76.67 94.00 74.00 94.00
C 74.86 95.83 74.34 96.74 74.00 98.00 Z"/>
</g>
<g fill="#98724B" fill-opacity="1.00" stroke="None">
<path d="
M 90.00 100.00 
C 90.73 98.18 93.23 96.69 91.00 94.00
C 90.08 94.55 90.35 98.48 90.00 100.00 Z"/>
</g>
<g fill="#825733" fill-opacity="1.00" stroke="None">
<path d="
M 96.00 105.00 
C 96.18 105.47 97.70 105.73 98.00 106.00
C 100.78 103.81 98.98 95.74 104.00 94.00
C 101.56 94.41 101.23 94.35 99.00 94.00
C 98.79 97.85 97.28 101.48 96.00 105.00 Z"/>
</g>
<g fill="#E9B449" fill-opacity="1.00" stroke="None">
<path d="
M 98.00 106.00 
C 101.65 109.33 107.01 107.65 112.00 108.00
C 112.00 109.33 112.00 110.67 112.00 112.00
C 111.70 114.01 110.11 115.42 108.00 115.00
C 106.00 115.18 91.59 114.59 94.00 117.00
C 97.29 118.56 110.41 117.93 114.00 117.00
C 125.83 112.07 116.15 101.29 106.00 106.00
C 105.16 102.23 107.14 99.32 108.00 96.00
C 116.67 96.00 125.33 96.00 134.00 96.00
C 133.54 103.86 127.28 110.05 127.00 118.00
C 135.75 120.61 134.68 109.92 139.00 106.00
C 139.00 106.00 138.92 105.49 139.00 105.00
C 139.52 101.83 141.30 99.13 142.00 96.00
C 145.00 96.00 148.00 96.00 151.00 96.00
C 151.33 95.72 152.86 94.82 152.00 94.00
C 149.44 91.57 139.93 94.82 136.00 94.00 C 132.07 93.18 124.37 93.77 120.00 94.00 C 115.63 94.23 108.17 92.55 104.00 94.00
C 98.98 95.74 100.78 103.81 98.00 106.00 Z"/>
</g>
<g fill="#69434F" fill-opacity="1.00" stroke="None">
<path d="
M 30.00 115.00 
C 28.74 116.80 25.60 119.78 23.00 118.00
C 34.28 122.59 33.47 103.82 38.00 97.00
C 40.87 94.65 48.27 99.18 47.00 99.00
C 48.80 99.26 52.52 96.11 54.00 99.00
C 54.18 99.35 54.14 101.63 54.00 102.00
C 53.89 101.67 56.18 97.95 54.00 97.00
C 57.00 97.00 60.00 97.00 63.00 97.00
C 63.67 100.20 61.59 102.60 60.00 105.00
C 60.79 104.88 62.42 104.68 63.00 104.00
C 62.39 100.93 65.60 99.04 65.00 96.00
C 55.67 96.00 46.33 96.00 37.00 96.00
C 33.84 101.73 33.69 109.73 30.00 115.00 Z"/>
</g>
<g fill="#674253" fill-opacity="1.00" stroke="None">
<path d="
M 72.00 97.00 
C 71.58 102.70 67.95 109.53 61.00 108.00
C 58.53 112.40 65.42 113.94 66.00 115.00
C 68.30 119.19 57.55 119.31 56.00 116.00
C 55.70 115.35 55.23 114.48 55.00 114.00
C 57.86 122.79 71.64 118.08 81.00 119.00 C 90.36 119.92 102.04 117.95 112.00 119.00
C 106.86 123.96 118.11 128.21 118.00 122.00
C 117.37 125.33 113.76 122.05 112.00 124.00
C 111.10 120.77 114.34 119.38 117.00 120.00
C 116.81 114.40 121.37 116.46 120.99 109.01 C 120.61 101.56 113.68 106.63 109.26 103.74 C 104.83 100.86 112.66 94.69 117.00 97.00 C 121.34 99.31 128.41 95.27 133.00 97.00
C 128.78 101.31 132.36 106.40 127.77 110.77 C 123.18 115.14 127.39 121.42 132.92 118.92 C 138.45 116.41 137.91 110.66 139.00 106.00
C 134.68 109.92 135.75 120.61 127.00 118.00
C 127.28 110.05 133.54 103.86 134.00 96.00
C 125.33 96.00 116.67 96.00 108.00 96.00
C 107.14 99.32 105.16 102.23 106.00 106.00
C 116.15 101.29 125.83 112.07 114.00 117.00
C 110.66 118.39 96.85 119.85 94.00 117.00
C 91.59 114.59 106.00 115.18 108.00 115.00
C 108.04 115.00 108.00 114.00 108.00 114.00
C 103.33 114.00 98.67 114.00 94.00 114.00
C 94.00 104.38 104.72 110.68 111.00 109.00
C 111.76 111.19 109.70 112.32 109.00 114.00
C 109.44 113.84 111.89 112.27 112.00 112.00
C 112.00 110.67 112.00 109.33 112.00 108.00
C 107.01 107.65 101.65 109.33 98.00 106.00
C 97.70 105.73 96.18 105.47 96.00 105.00
C 94.58 108.91 93.19 115.04 89.00 117.00
C 84.83 118.95 66.67 120.88 68.00 113.00
C 65.73 114.89 62.98 112.63 63.00 110.00
C 64.37 109.48 67.16 109.59 69.00 108.00
C 69.37 109.54 67.57 110.40 68.00 112.00
C 68.25 111.75 69.00 112.00 69.00 112.00
C 71.46 107.89 72.78 102.52 74.00 98.00
C 73.55 95.42 72.11 97.24 72.00 97.00 Z"/>
</g>
<g fill="#623D51" fill-opacity="1.00" stroke="None">
<path d="
M 139.00 105.00 
C 140.58 102.77 143.09 100.08 143.00 97.00
C 145.71 96.74 148.98 97.75 151.00 96.00
C 148.00 96.00 145.00 96.00 142.00 96.00
C 141.30 99.13 139.52 101.83 139.00 105.00 Z"/>
</g>
<g fill="#5A3977" fill-opacity="1.00" stroke="None">
<path d="
M 54.00 102.00 
C 54.29 102.91 53.77 104.07 54.00 105.00
C 56.00 105.00 58.00 105.00 60.00 105.00
C 61.59 102.60 63.67 100.20 63.00 97.00
C 60.00 97.00 57.00 97.00 54.00 97.00
C 56.18 97.95 53.89 101.67 54.00 102.00 Z"/>
</g>
<g fill="#A87E4C" fill-opacity="1.00" stroke="None">
<path d="
M 47.00 99.00 
C 46.91 100.30 46.44 101.85 46.00 103.00
C 47.35 102.34 47.85 100.41 48.00 99.00
C 50.00 99.00 52.00 99.00 54.00 99.00
C 52.52 96.11 48.80 99.26 47.00 99.00 Z"/>
</g>
<g fill="#9B7145" fill-opacity="1.00" stroke="None">
<path d="
M 63.00 104.00 
C 62.42 104.68 60.79 104.88 60.00 105.00
C 58.00 105.00 56.00 105.00 54.00 105.00
C 53.77 104.07 54.29 102.91 54.00 102.00
C 52.54 102.32 52.95 104.13 52.00 105.00
C 55.41 106.47 60.55 107.10 63.00 104.00 Z"/>
</g>
<g fill="#654155" fill-opacity="1.00" stroke="None">
<path d="
M 49.00 116.00 
C 48.94 116.16 48.00 116.00 48.00 116.00
C 48.00 116.00 48.25 116.74 48.00 117.00
C 46.32 118.74 43.37 117.73 41.00 118.00
C 41.28 116.72 40.24 114.50 42.00 114.00
C 42.35 111.90 43.25 108.92 44.00 107.00
C 42.46 109.62 39.45 113.39 40.08 116.92 C 40.72 120.44 49.42 120.08 49.00 116.00 Z"/>
</g>
<g fill="#875C3F" fill-opacity="1.00" stroke="None">
<path d="
M 48.00 116.00 
C 48.00 116.00 48.94 116.16 49.00 116.00
C 49.51 114.64 51.44 107.00 54.00 110.00
C 51.31 105.21 48.74 112.87 48.00 116.00 Z"/>
</g>
<g fill="#5A3B82" fill-opacity="1.00" stroke="None">
<path d="
M 68.00 113.00 
C 68.08 112.51 68.00 112.00 68.00 112.00
C 67.57 110.40 69.37 109.54 69.00 108.00
C 67.16 109.59 64.37 109.48 63.00 110.00
C 62.98 112.63 65.73 114.89 68.00 113.00 Z"/>
</g>
<g fill="#5A3A7D" fill-opacity="1.00" stroke="None">
<path d="
M 108.00 114.00 
C 108.50 114.00 109.00 114.00 109.00 114.00
C 109.70 112.32 111.76 111.19 111.00 109.00
C 104.72 110.68 94.00 104.38 94.00 114.00
C 98.67 114.00 103.33 114.00 108.00 114.00 Z"/>
</g>
<g fill="#9D7343" fill-opacity="1.00" stroke="None">
<path d="
M 68.00 113.00 
C 66.67 120.88 84.83 118.95 89.00 117.00
C 82.33 117.00 75.67 117.00 69.00 117.00
C 69.22 115.37 68.71 113.62 69.00 112.00
C 69.00 112.00 68.25 111.75 68.00 112.00
C 68.00 112.00 68.08 112.51 68.00 113.00 Z"/>
</g>
<g fill="#6E443A" fill-opacity="1.00" stroke="None">
<path d="
M 76.00 113.00 
C 76.06 116.65 84.34 115.37 86.00 113.00
C 86.00 113.00 85.89 112.47 86.00 112.00
C 83.09 114.98 78.91 114.57 77.00 112.00
C 76.89 112.26 76.22 112.71 76.00 113.00 Z"/>
</g>
<g fill="#8C5D3F" fill-opacity="1.00" stroke="None">
<path d="
M 109.00 114.00 
C 109.00 114.00 108.50 114.00 108.00 114.00
C 108.00 114.00 108.04 115.00 108.00 115.00
C 110.11 115.42 111.70 114.01 112.00 112.00
C 111.89 112.27 109.44 113.84 109.00 114.00 Z"/>
</g>
<g fill="#BE9056" fill-opacity="1.00" stroke="None">
<path d="
M 86.00 113.00 
C 84.34 115.37 76.06 116.65 76.00 113.00
C 73.22 116.63 84.74 117.83 86.00 113.00 Z"/>
</g>
<g fill="#A27952" fill-opacity="1.00" stroke="None">
<path d="
M 23.00 118.00 
C 25.60 119.78 28.74 116.80 30.00 115.00
C 28.02 116.70 25.73 117.49 23.00 117.00
C 22.86 116.02 23.17 114.97 23.00 114.00
C 22.53 115.61 21.32 116.22 23.00 118.00 Z"/>
</g>
<g fill="#A27956" fill-opacity="1.00" stroke="None">
<path d="
M 48.00 117.00 
C 46.00 117.00 44.00 117.00 42.00 117.00
C 41.86 116.03 42.18 114.97 42.00 114.00
C 40.24 114.50 41.28 116.72 41.00 118.00
C 43.37 117.73 46.32 118.74 48.00 117.00 Z"/>
</g>
<g fill="#A07754" fill-opacity="1.00" stroke="None">
<path d="
M 56.00 116.00 
C 57.55 119.31 68.30 119.19 66.00 115.00
C 66.05 118.05 57.65 117.92 56.00 116.00 Z"/>
</g>
<g fill="#9F753E" fill-opacity="1.00" stroke="None">
<path d="
M 114.00 117.00 
C 110.41 117.93 97.29 118.56 94.00 117.00
C 96.85 119.85 110.66 118.39 114.00 117.00 Z"/>
</g>
<g fill="#825E77" fill-opacity="1.00" stroke="None">
<path d="
M 26.00 120.00 
C 23.60 117.60 17.57 121.64 20.33 124.67 C 23.09 127.70 28.16 122.16 26.00 120.00 Z"/>
</g>
<g fill="#8A677E" fill-opacity="1.00" stroke="None">
<path d="
M 41.00 125.00 
C 42.26 115.11 31.72 124.78 41.00 125.00 Z"/>
</g>
<g fill="#856282" fill-opacity="1.00" stroke="None">
<path d="
M 85.00 121.00 
C 82.58 123.28 82.15 119.92 80.00 120.00
C 78.22 124.95 85.19 126.08 85.00 121.00 Z"/>
</g>
<g fill="#84647D" fill-opacity="1.00" stroke="None">
<path d="
M 101.00 120.00 
C 90.67 118.65 100.28 130.89 101.00 120.00 Z"/>
</g>
<g fill="#916980" fill-opacity="1.00" stroke="None">
<path d="
M 118.00 122.00 
C 117.98 120.67 117.44 120.82 117.00 120.00
C 114.34 119.38 111.10 120.77 112.00 124.00
C 113.76 122.05 117.37 125.33 118.00 122.00 Z"/>
</g>
<g fill="#8D6D91" fill-opacity="1.00" stroke="None">
<path d="
M 133.00 120.00 
C 131.40 122.07 129.10 119.04 128.00 121.00
C 129.94 123.79 132.52 124.19 133.00 120.00 Z"/>
</g>
<g fill="#704A66" fill-opacity="1.00" stroke="None">
<path d="
M 61.00 144.00 
C 60.76 142.02 62.87 145.46 63.00 146.00
C 63.00 146.00 63.50 146.00 64.00 146.00
C 64.18 145.03 63.86 143.97 64.00 143.00
C 66.03 142.36 66.06 144.69 66.00 146.00
C 66.00 146.00 66.50 146.00 67.00 146.00
C 67.13 145.02 66.89 143.99 67.00 143.00
C 69.84 141.48 71.39 146.45 68.00 146.00
C 70.73 146.41 81.62 148.86 78.00 142.00
C 75.26 143.06 59.57 141.23 61.00 144.00
M 74.00 143.00 
C 74.56 148.26 68.54 143.61 74.00 143.00
M 78.00 143.00 
C 78.81 143.81 77.69 146.77 76.29 145.63 C 74.90 144.50 77.10 142.10 78.00 143.00 Z"/>
</g>
<g fill="#674870" fill-opacity="1.00" stroke="None">
<path d="
M 86.00 143.00 
C 88.56 142.12 88.65 146.82 86.00 146.00
C 90.17 145.28 103.34 151.73 100.00 142.00
C 97.11 144.03 87.62 140.11 86.00 143.00
M 92.00 143.00 
C 92.81 143.81 91.69 146.77 90.29 145.63 C 88.90 144.50 91.11 142.10 92.00 143.00
M 96.00 143.00 
C 96.81 143.81 95.69 146.77 94.29 145.63 C 92.90 144.50 95.11 142.10 96.00 143.00
M 100.00 143.00 
C 100.81 143.81 99.69 146.77 98.29 145.63 C 96.90 144.50 99.11 142.10 100.00 143.00 Z"/>
</g>
<g fill="#9F849B" fill-opacity="1.00" stroke="None">
<path d="
M 61.00 144.00 
C 61.17 145.43 61.32 146.19 63.00 146.00
C 62.87 145.46 60.76 142.02 61.00 144.00 Z"/>
</g>
<g fill="#98717A" fill-opacity="1.00" stroke="None">
<path d="
M 64.00 146.00 
C 64.50 146.00 65.50 146.00 66.00 146.00
C 66.06 144.69 66.03 142.36 64.00 143.00
C 63.86 143.97 64.18 145.03 64.00 146.00 Z"/>
</g>
<g fill="#B18B81" fill-opacity="1.00" stroke="None">
<path d="
M 67.00 146.00 
C 67.00 146.00 67.54 145.87 68.00 146.00
C 71.39 146.45 69.84 141.48 67.00 143.00
C 66.89 143.99 67.13 145.02 67.00 146.00 Z"/>
</g>
<g fill="#A47A8B" fill-opacity="1.00" stroke="None">
<path d="
M 74.00 143.00 
C 68.54 143.61 74.56 148.26 74.00 143.00 Z"/>
</g>
<g fill="#A8817F" fill-opacity="1.00" stroke="None">
<path d="
M 78.00 143.00 
C 77.10 142.10 74.90 144.50 76.29 145.63 C 77.69 146.77 78.81 143.81 78.00 143.00 Z"/>
</g>
<g fill="#A28392" fill-opacity="1.00" stroke="None">
<path d="
M 86.00 146.00 
C 88.65 146.82 88.56 142.12 86.00 143.00
C 86.36 142.36 86.45 146.80 86.00 146.00 Z"/>
</g>
<g fill="#A38784" fill-opacity="1.00" stroke="None">
<path d="
M 92.00 143.00 
C 91.11 142.10 88.90 144.50 90.29 145.63 C 91.69 146.77 92.81 143.81 92.00 143.00 Z"/>
</g>
<g fill="#937582" fill-opacity="1.00" stroke="None">
<path d="
M 96.00 143.00 
C 95.11 142.10 92.90 144.50 94.29 145.63 C 95.69 146.77 96.81 143.81 96.00 143.00 Z"/>
</g>
<g fill="#9A8293" fill-opacity="1.00" stroke="None">
<path d="
M 100.00 143.00 
C 99.11 142.10 96.90 144.50 98.29 145.63 C 99.69 146.77 100.81 143.81 100.00 143.00 Z"/>
</g>
</svg>